  0
SECTION
  2
HEADER
  9
$ACADVER
  1
AC1014
  9
$HANDSEED
  5
FFFF
  9
$MEASUREMENT
 70
     1
  0
ENDSEC
  0
SECTION
  2
TABLES
  0
TABLE
  2
VPORT
  5
8
330
0
100
AcDbSymbolTable
 70
     4
  0
VPORT
  5
2E
330
8
100
AcDbSymbolTableRecord
100
AcDbViewportTableRecord
  2
*ACTIVE
 70
     0
 10
0.0
 20
0.0
 11
1.0
 21
1.0
 12
210.0
 22
148.5
 13
0.0
 23
0.0
 14
10.0
 24
10.0
 15
10.0
 25
10.0
 16
0.0
 26
0.0
 36
1.0
 17
0.0
 27
0.0
 37
0.0
 40
341.0
 41
1.24
 42
50.0
 43
0.0
 44
0.0
 50
0.0
 51
0.0
 71
     0
 72
   100
 73
     1
 74
     3
 75
     0
 76
     0
 77
     0
 78
     0
  0
ENDTAB
  0
TABLE
  2
LTYPE
  5
5
330
0
100
AcDbSymbolTable
 70
     1
  0
LTYPE
  5
14
330
5
100
AcDbSymbolTableRecord
100
AcDbLinetypeTableRecord
  2
BYBLOCK
 70
     0
  3

 72
    65
 73
     0
 40
0.0
  0
LTYPE
  5
15
330
5
100
AcDbSymbolTableRecord
100
AcDbLinetypeTableRecord
  2
BYLAYER
 70
     0
  3

 72
    65
 73
     0
 40
0.0
  0
LTYPE
  5
16
330
5
100
AcDbSymbolTableRecord
100
AcDbLinetypeTableRecord
  2
CONTINUOUS
 70
     0
  3
Solid line
 72
    65
 73
     0
 40
0.0
  0
ENDTAB
  0
TABLE
  2
LAYER
  5
2
100
AcDbSymbolTable
 70
1
  0
LAYER
  5
50
100
AcDbSymbolTableRecord
100
AcDbLayerTableRecord
  2
0
 70
0
  6
CONTINUOUS
  0
ENDTAB
  0
TABLE
  2
STYLE
  5
3
330
0
100
AcDbSymbolTable
 70
     1
  0
STYLE
  5
11
330
3
100
AcDbSymbolTableRecord
100
AcDbTextStyleTableRecord
  2
STANDARD
 70
     0
 40
0.0
 41
1.0
 50
0.0
 71
     0
 42
2.5
  3
txt
  4

  0
ENDTAB
  0
TABLE
  2
VIEW
  5
6
330
0
100
AcDbSymbolTable
 70
     0
  0
ENDTAB
  0
TABLE
  2
UCS
  5
7
330
0
100
AcDbSymbolTable
 70
     0
  0
ENDTAB
  0
TABLE
  2
APPID
  5
9
330
0
100
AcDbSymbolTable
 70
     2
  0
APPID
  5
12
330
9
100
AcDbSymbolTableRecord
100
AcDbRegAppTableRecord
  2
ACAD
 70
     0
  0
ENDTAB
  0
TABLE
  2
DIMSTYLE
  5
A
330
0
100
AcDbSymbolTable
 70
     1
  0
DIMSTYLE
105
27
330
A
100
AcDbSymbolTableRecord
100
AcDbDimStyleTableRecord
  2
ISO-25
 70
     0
  3

  4

  5

  6

  7

 40
1.0
 41
2.5
 42
0.625
 43
3.75
 44
1.25
 45
0.0
 46
0.0
 47
0.0
 48
0.0
140
2.5
141
2.5
142
0.0
143
0.03937007874016
144
1.0
145
0.0
146
1.0
147
0.625
 71
     0
 72
     0
 73
     0
 74
     0
 75
     0
 76
     0
 77
     1
 78
     8
170
     0
171
     3
172
     1
173
     0
174
     0
175
     0
176
     0
177
     0
178
     0
270
     2
271
     2
272
     2
273
     2
274
     3
340
11
275
     0
280
     0
281
     0
282
     0
283
     0
284
     8
285
     0
286
     0
287
     3
288
     0
  0
ENDTAB
  0
TABLE
  2
BLOCK_RECORD
  5
1
330
0
100
AcDbSymbolTable
 70
     1
  0
BLOCK_RECORD
  5
1F
330
1
100
AcDbSymbolTableRecord
100
AcDbBlockTableRecord
  2
*MODEL_SPACE
  0
BLOCK_RECORD
  5
1B
330
1
100
AcDbSymbolTableRecord
100
AcDbBlockTableRecord
  2
*PAPER_SPACE
  0
ENDTAB
  0
ENDSEC
  0
SECTION
  2
BLOCKS
  0
BLOCK
  5
20
330
1F
100
AcDbEntity
  8
0
100
AcDbBlockBegin
  2
*MODEL_SPACE
 70
     0
 10
0.0
 20
0.0
 30
0.0
  3
*MODEL_SPACE
  1

  0
ENDBLK
  5
21
330
1F
100
AcDbEntity
  8
0
100
AcDbBlockEnd
  0
BLOCK
  5
1C
330
1B
100
AcDbEntity
 67
     1
  8
0
100
AcDbBlockBegin
  2
*PAPER_SPACE
  1

  0
ENDBLK
  5
1D
330
1B
100
AcDbEntity
 67
     1
  8
0
100
AcDbBlockEnd
  0
ENDSEC
  0
SECTION
  2
ENTITIES
  0
LINE
  5
100
100
AcDbEntity
  8
0
 62
7
100
AcDbLine
 10
288.242022
 20
-73.533000
 30
0.0
 11
288.242022
 21
-74.535736
 31
0.0
  0
SPLINE
  5
101
100
AcDbEntity
  8
0
 62
7
100
AcDbSpline
 70
8
 71
3
 72
8
 73
4
 74
0
 40
0
 40
0
 40
0
 40
0
 40
1
 40
1
 40
1
 40
1
 10
288.242022
 20
-74.535736
 30
0.0
 10
288.242022
 20
-77.750247
 30
0.0
 10
288.838358
 20
-79.842642
 30
0.0
 10
290.031029
 20
-80.813487
 30
0.0
  0
SPLINE
  5
102
100
AcDbEntity
  8
0
 62
7
100
AcDbSpline
 70
8
 71
3
 72
8
 73
4
 74
0
 40
0
 40
0
 40
0
 40
0
 40
1
 40
1
 40
1
 40
1
 10
290.031029
 20
-80.813487
 30
0.0
 10
291.223982
 20
-81.784049
 30
0.0
 10
293.267836
 20
-82.269471
 30
0.0
 10
296.162307
 20
-82.269471
 30
0.0
  0
LINE
  5
103
100
AcDbEntity
  8
0
 62
7
100
AcDbLine
 10
296.162307
 20
-82.269471
 30
0.0
 11
334.428818
 21
-82.269471
 31
0.0
  0
SPLINE
  5
104
100
AcDbEntity
  8
0
 62
7
100
AcDbSpline
 70
8
 71
3
 72
8
 73
4
 74
0
 40
0
 40
0
 40
0
 40
0
 40
1
 40
1
 40
1
 40
1
 10
334.428818
 20
-82.269471
 30
0.0
 10
337.387071
 20
-82.269471
 30
0.0
 10
339.446729
 20
-81.768244
 30
0.0
 10
340.607791
 20
-80.765791
 30
0.0
  0
SPLINE
  5
105
100
AcDbEntity
  8
0
 62
7
100
AcDbSpline
 70
8
 71
3
 72
8
 73
4
 74
0
 40
0
 40
0
 40
0
 40
0
 40
1
 40
1
 40
1
 40
1
 10
340.607791
 20
-80.765791
 30
0.0
 10
341.768853
 20
-79.763056
 30
0.0
 10
342.349384
 20
-77.686464
 30
0.0
 10
342.349384
 20
-74.535736
 30
0.0
  0
LINE
  5
106
100
AcDbEntity
  8
0
 62
7
100
AcDbLine
 10
342.349384
 20
-74.535736
 30
0.0
 11
342.349384
 21
-73.533000
 31
0.0
  0
LINE
  5
107
100
AcDbEntity
  8
0
 62
7
100
AcDbLine
 10
342.349384
 20
-73.533000
 30
0.0
 11
347.581784
 21
-73.533000
 31
0.0
  0
LINE
  5
108
100
AcDbEntity
  8
0
 62
7
100
AcDbLine
 10
347.581784
 20
-73.533000
 30
0.0
 11
347.581784
 21
-36.030747
 31
0.0
  0
LINE
  5
109
100
AcDbEntity
  8
0
 62
7
100
AcDbLine
 10
347.581784
 20
-36.030747
 30
0.0
 11
361.269844
 21
-38.608847
 31
0.0
  0
LINE
  5
10a
100
AcDbEntity
  8
0
 62
7
100
AcDbLine
 10
361.269844
 20
-38.608847
 30
0.0
 11
361.269844
 21
-38.617878
 31
0.0
  0
SPLINE
  5
10b
100
AcDbEntity
  8
0
 62
7
100
AcDbSpline
 70
8
 71
3
 72
8
 73
4
 74
0
 40
0
 40
0
 40
0
 40
0
 40
1
 40
1
 40
1
 40
1
 10
361.269844
 20
-38.617878
 30
0.0
 10
363.230442
 20
-36.539311
 30
0.0
 10
366.008638
 20
-35.241653
 30
0.0
 10
369.087400
 20
-35.241653
 30
0.0
  0
SPLINE
  5
10c
100
AcDbEntity
  8
0
 62
7
100
AcDbSpline
 70
8
 71
3
 72
8
 73
4
 74
0
 40
0
 40
0
 40
0
 40
0
 40
1
 40
1
 40
1
 40
1
 10
369.087400
 20
-35.241653
 30
0.0
 10
375.019993
 20
-35.241653
 30
0.0
 10
379.836398
 20
-40.060598
 30
0.0
 10
379.836398
 20
-45.996296
 30
0.0
  0
SPLINE
  5
10d
100
AcDbEntity
  8
0
 62
7
100
AcDbSpline
 70
8
 71
3
 72
8
 73
4
 74
0
 40
0
 40
0
 40
0
 40
0
 40
1
 40
1
 40
1
 40
1
 10
379.836398
 20
-45.996296
 30
0.0
 10
379.836398
 20
-51.931993
 30
0.0
 10
375.019993
 20
-56.751220
 30
0.0
 10
369.087400
 20
-56.751220
 30
0.0
  0
SPLINE
  5
10e
100
AcDbEntity
  8
0
 62
7
100
AcDbSpline
 70
8
 71
3
 72
8
 73
4
 74
0
 40
0
 40
0
 40
0
 40
0
 40
1
 40
1
 40
1
 40
1
 10
369.087400
 20
-56.751220
 30
0.0
 10
366.008638
 20
-56.751220
 30
0.0
 10
366.008638
 20
-126.168573
 30
0.0
 10
369.087400
 20
-126.168573
 30
0.0
  0
SPLINE
  5
10f
100
AcDbEntity
  8
0
 62
7
100
AcDbSpline
 70
8
 71
3
 72
8
 73
4
 74
0
 40
0
 40
0
 40
0
 40
0
 40
1
 40
1
 40
1
 40
1
 10
369.087400
 20
-126.168573
 30
0.0
 10
375.019993
 20
-126.168573
 30
0.0
 10
379.836398
 20
-130.987518
 30
0.0
 10
379.836398
 20
-136.923216
 30
0.0
  0
SPLINE
  5
110
100
AcDbEntity
  8
0
 62
7
100
AcDbSpline
 70
8
 71
3
 72
8
 73
4
 74
0
 40
0
 40
0
 40
0
 40
0
 40
1
 40
1
 40
1
 40
1
 10
379.836398
 20
-136.923216
 30
0.0
 10
379.836398
 20
-142.859196
 30
0.0
 10
375.019993
 20
-147.678140
 30
0.0
 10
369.087400
 20
-147.678140
 30
0.0
  0
SPLINE
  5
111
100
AcDbEntity
  8
0
 62
7
100
AcDbSpline
 70
8
 71
3
 72
8
 73
4
 74
0
 40
0
 40
0
 40
0
 40
0
 40
1
 40
1
 40
1
 40
1
 10
369.087400
 20
-147.678140
 30
0.0
 10
366.008638
 20
-147.678140
 30
0.0
 10
363.230442
 20
-146.380200
 30
0.0
 10
361.269844
 20
-144.301916
 30
0.0
  0
LINE
  5
112
100
AcDbEntity
  8
0
 62
7
100
AcDbLine
 10
361.269844
 20
-144.301916
 30
0.0
 11
361.269844
 21
-144.310947
 31
0.0
  0
LINE
  5
113
100
AcDbEntity
  8
0
 62
7
100
AcDbLine
 10
361.269844
 20
-144.310947
 30
0.0
 11
347.581784
 21
-146.889047
 31
0.0
  0
LINE
  5
114
100
AcDbEntity
  8
0
 62
7
100
AcDbLine
 10
347.581784
 20
-146.889047
 30
0.0
 11
347.581784
 21
-107.762604
 31
0.0
  0
LINE
  5
115
100
AcDbEntity
  8
0
 62
7
100
AcDbLine
 10
347.581784
 20
-107.762604
 30
0.0
 11
342.349384
 21
-107.762604
 31
0.0
  0
SPLINE
  5
116
100
AcDbEntity
  8
0
 62
7
100
AcDbSpline
 70
8
 71
3
 72
8
 73
4
 74
0
 40
0
 40
0
 40
0
 40
0
 40
1
 40
1
 40
1
 40
1
 10
342.349384
 20
-107.762604
 30
0.0
 10
342.349384
 20
-104.325138
 30
0.0
 10
341.824451
 20
-102.041678
 30
0.0
 10
340.774867
 20
-100.911942
 30
0.0
  0
SPLINE
  5
117
100
AcDbEntity
  8
0
 62
7
100
AcDbSpline
 70
8
 71
3
 72
8
 73
4
 74
0
 40
0
 40
0
 40
0
 40
0
 40
1
 40
1
 40
1
 40
1
 10
340.774867
 20
-100.911942
 30
0.0
 10
339.725282
 20
-99.781924
 30
0.0
 10
337.609744
 20
-99.217198
 30
0.0
 10
334.428818
 20
-99.217198
 30
0.0
  0
LINE
  5
118
100
AcDbEntity
  8
0
 62
7
100
AcDbLine
 10
334.428818
 20
-99.217198
 30
0.0
 11
296.162307
 21
-99.217198
 31
0.0
  0
SPLINE
  5
119
100
AcDbEntity
  8
0
 62
7
100
AcDbSpline
 70
8
 71
3
 72
8
 73
4
 74
0
 40
0
 40
0
 40
0
 40
0
 40
1
 40
1
 40
1
 40
1
 10
296.162307
 20
-99.217198
 30
0.0
 10
293.076771
 20
-99.217198
 30
0.0
 10
290.985504
 20
-99.750033
 30
0.0
 10
289.887942
 20
-100.816269
 30
0.0
  0
SPLINE
  5
11a
100
AcDbEntity
  8
0
 62
7
100
AcDbSpline
 70
8
 71
3
 72
8
 73
4
 74
0
 40
0
 40
0
 40
0
 40
0
 40
1
 40
1
 40
1
 40
1
 10
289.887942
 20
-100.816269
 30
0.0
 10
288.790662
 20
-101.882504
 30
0.0
 10
288.242022
 20
-104.197856
 30
0.0
 10
288.242022
 20
-107.762604
 30
0.0
  0
LINE
  5
11b
100
AcDbEntity
  8
0
 62
7
100
AcDbLine
 10
288.242022
 20
-107.762604
 30
0.0
 11
282.945558
 21
-107.762604
 31
0.0
  0
LINE
  5
11c
100
AcDbEntity
  8
0
 62
7
100
AcDbLine
 10
282.945558
 20
-107.762604
 30
0.0
 11
282.945558
 21
-73.533000
 31
0.0
  0
LINE
  5
11d
100
AcDbEntity
  8
0
 62
7
100
AcDbLine
 10
282.945558
 20
-73.533000
 30
0.0
 11
288.242022
 21
-73.533000
 31
0.0
  0
LINE
  5
11e
100
AcDbEntity
  8
0
 62
7
100
AcDbLine
 10
288.242022
 20
-73.533000
 30
0.0
 11
288.242022
 21
-73.533000
 31
0.0
  0
LINE
  5
11f
100
AcDbEntity
  8
0
 62
1
100
AcDbLine
 10
347.582067
 20
-146.889047
 30
0.0
 11
347.582067
 21
-36.030747
 31
0.0
  0
LINE
  5
120
100
AcDbEntity
  8
0
 62
1
100
AcDbLine
 10
347.582067
 20
-36.030747
 30
0.0
 11
347.582067
 21
-146.889047
 31
0.0
  0
LINE
  5
121
100
AcDbEntity
  8
0
 62
1
100
AcDbLine
 10
347.582067
 20
-146.889047
 30
0.0
 11
347.582067
 21
-146.889047
 31
0.0
  0
LINE
  5
122
100
AcDbEntity
  8
0
 62
7
100
AcDbLine
 10
14.053256
 20
-28.856093
 30
0.0
 11
14.053256
 21
-29.906242
 31
0.0
  0
SPLINE
  5
123
100
AcDbEntity
  8
0
 62
7
100
AcDbSpline
 70
8
 71
3
 72
8
 73
4
 74
0
 40
0
 40
0
 40
0
 40
0
 40
1
 40
1
 40
1
 40
1
 10
14.053256
 20
-29.906242
 30
0.0
 10
14.053256
 20
-33.120753
 30
0.0
 10
14.649873
 20
-35.213431
 30
0.0
 10
15.842544
 20
-36.183993
 30
0.0
  0
SPLINE
  5
124
100
AcDbEntity
  8
0
 62
7
100
AcDbSpline
 70
8
 71
3
 72
8
 73
4
 74
0
 40
0
 40
0
 40
0
 40
0
 40
1
 40
1
 40
1
 40
1
 10
15.842544
 20
-36.183993
 30
0.0
 10
17.035498
 20
-37.154838
 30
0.0
 10
19.079069
 20
-37.639978
 30
0.0
 10
21.973822
 20
-37.639978
 30
0.0
  0
LINE
  5
125
100
AcDbEntity
  8
0
 62
7
100
AcDbLine
 10
21.973822
 20
-37.639978
 30
0.0
 11
40.009798
 21
-37.639978
 31
0.0
  0
LINE
  5
126
100
AcDbEntity
  8
0
 62
7
100
AcDbLine
 10
40.009798
 20
-37.639978
 30
0.0
 11
23.882491
 21
-20.119622
 31
0.0
  0
SPLINE
  5
127
100
AcDbEntity
  8
0
 62
7
100
AcDbSpline
 70
8
 71
3
 72
8
 73
4
 74
0
 40
0
 40
0
 40
0
 40
0
 40
1
 40
1
 40
1
 40
1
 10
23.882491
 20
-20.119622
 30
0.0
 10
21.083129
 20
-17.064284
 30
0.0
 10
18.792896
 20
-15.536616
 30
0.0
 10
17.011509
 20
-15.536616
 30
0.0
  0
SPLINE
  5
128
100
AcDbEntity
  8
0
 62
7
100
AcDbSpline
 70
8
 71
3
 72
8
 73
4
 74
0
 40
0
 40
0
 40
0
 40
0
 40
1
 40
1
 40
1
 40
1
 10
17.011509
 20
-15.536616
 30
0.0
 10
15.039340
 20
-15.536616
 30
0.0
 10
14.053256
 20
-17.462218
 30
0.0
 10
14.053256
 20
-21.313140
 30
0.0
  0
LINE
  5
129
100
AcDbEntity
  8
0
 62
7
100
AcDbLine
 10
14.053256
 20
-21.313140
 30
0.0
 11
8.757073
 21
-21.313140
 31
0.0
  0
LINE
  5
12a
100
AcDbEntity
  8
0
 62
7
100
AcDbLine
 10
8.757073
 20
-21.313140
 30
0.0
 11
8.757073
 21
7.330722
 31
0.0
  0
LINE
  5
12b
100
AcDbEntity
  8
0
 62
7
100
AcDbLine
 10
8.757073
 20
7.330722
 30
0.0
 11
14.053256
 21
7.330722
 31
0.0
  0
SPLINE
  5
12c
100
AcDbEntity
  8
0
 62
7
100
AcDbSpline
 70
8
 71
3
 72
8
 73
4
 74
0
 40
0
 40
0
 40
0
 40
0
 40
1
 40
1
 40
1
 40
1
 10
14.053256
 20
7.330722
 30
0.0
 10
14.053256
 20
4.721013
 30
0.0
 10
14.721276
 20
1.983740
 30
0.0
 10
16.057316
 20
-0.880533
 30
0.0
  0
SPLINE
  5
12d
100
AcDbEntity
  8
0
 62
7
100
AcDbSpline
 70
8
 71
3
 72
8
 73
4
 74
0
 40
0
 40
0
 40
0
 40
0
 40
1
 40
1
 40
1
 40
1
 10
16.057316
 20
-0.880533
 30
0.0
 10
17.393356
 20
-3.744807
 30
0.0
 10
20.494696
 20
-7.802880
 30
0.0
 10
25.361618
 20
-13.054189
 30
0.0
  0
LINE
  5
12e
100
AcDbEntity
  8
0
 62
7
100
AcDbLine
 10
25.361618
 20
-13.054189
 30
0.0
 11
30.800887
 21
-18.926104
 31
0.0
  0
LINE
  5
12f
100
AcDbEntity
  8
0
 62
7
100
AcDbLine
 10
30.800887
 20
-18.926104
 30
0.0
 11
57.234384
 21
-1.119293
 31
0.0
  0
SPLINE
  5
130
100
AcDbEntity
  8
0
 62
7
100
AcDbSpline
 70
8
 71
3
 72
8
 73
4
 74
0
 40
0
 40
0
 40
0
 40
0
 40
1
 40
1
 40
1
 40
1
 10
57.234384
 20
-1.119293
 30
0.0
 10
61.687569
 20
1.872544
 30
0.0
 10
64.622116
 20
4.347069
 30
0.0
 10
66.037742
 20
6.304280
 30
0.0
  0
SPLINE
  5
131
100
AcDbEntity
  8
0
 62
7
100
AcDbSpline
 70
8
 71
3
 72
8
 73
4
 74
0
 40
0
 40
0
 40
0
 40
0
 40
1
 40
1
 40
1
 40
1
 10
66.037742
 20
6.304280
 30
0.0
 10
67.453087
 20
8.261491
 30
0.0
 10
68.160900
 20
10.879384
 30
0.0
 10
68.160900
 20
14.157396
 30
0.0
  0
LINE
  5
132
100
AcDbEntity
  8
0
 62
7
100
AcDbLine
 10
68.160900
 20
14.157396
 30
0.0
 11
73.393300
 21
14.157396
 31
0.0
  0
LINE
  5
133
100
AcDbEntity
  8
0
 62
7
100
AcDbLine
 10
73.393300
 20
14.157396
 30
0.0
 11
73.393300
 21
26.238482
 31
0.0
  0
LINE
  5
134
100
AcDbEntity
  8
0
 62
7
100
AcDbLine
 10
73.393300
 20
26.238482
 30
0.0
 11
87.081360
 21
23.660382
 31
0.0
  0
LINE
  5
135
100
AcDbEntity
  8
0
 62
7
100
AcDbLine
 10
87.081360
 20
23.660382
 30
0.0
 11
87.081360
 21
23.651351
 31
0.0
  0
SPLINE
  5
136
100
AcDbEntity
  8
0
 62
7
100
AcDbSpline
 70
8
 71
3
 72
8
 73
4
 74
0
 40
0
 40
0
 40
0
 40
0
 40
1
 40
1
 40
1
 40
1
 10
87.081360
 20
23.651351
 30
0.0
 10
89.041958
 20
25.729636
 30
0.0
 10
91.820153
 20
27.027576
 30
0.0
 10
94.898916
 20
27.027576
 30
0.0
  0
SPLINE
  5
137
100
AcDbEntity
  8
0
 62
7
100
AcDbSpline
 70
8
 71
3
 72
8
 73
4
 74
0
 40
0
 40
0
 40
0
 40
0
 40
1
 40
1
 40
1
 40
1
 10
94.898916
 20
27.027576
 30
0.0
 10
100.831227
 20
27.027576
 30
0.0
 10
105.647913
 20
22.208631
 30
0.0
 10
105.647913
 20
16.272651
 30
0.0
  0
SPLINE
  5
138
100
AcDbEntity
  8
0
 62
7
100
AcDbSpline
 70
8
 71
3
 72
8
 73
4
 74
0
 40
0
 40
0
 40
0
 40
0
 40
1
 40
1
 40
1
 40
1
 10
105.647913
 20
16.272651
 30
0.0
 10
105.647913
 20
10.336953
 30
0.0
 10
100.831227
 20
5.518009
 30
0.0
 10
94.898916
 20
5.518009
 30
0.0
  0
SPLINE
  5
139
100
AcDbEntity
  8
0
 62
7
100
AcDbSpline
 70
8
 71
3
 72
8
 73
4
 74
0
 40
0
 40
0
 40
0
 40
0
 40
1
 40
1
 40
1
 40
1
 10
94.898916
 20
5.518009
 30
0.0
 10
91.820153
 20
5.518009
 30
0.0
 10
91.820153
 20
-63.899344
 30
0.0
 10
94.898916
 20
-63.899344
 30
0.0
  0
SPLINE
  5
13a
100
AcDbEntity
  8
0
 62
7
100
AcDbSpline
 70
8
 71
3
 72
8
 73
4
 74
0
 40
0
 40
0
 40
0
 40
0
 40
1
 40
1
 40
1
 40
1
 10
94.898916
 20
-63.899344
 30
0.0
 10
100.831227
 20
-63.899344
 30
0.0
 10
105.647913
 20
-68.718571
 30
0.0
 10
105.647913
 20
-74.654269
 30
0.0
  0
SPLINE
  5
13b
100
AcDbEntity
  8
0
 62
7
100
AcDbSpline
 70
8
 71
3
 72
8
 73
4
 74
0
 40
0
 40
0
 40
0
 40
0
 40
1
 40
1
 40
1
 40
1
 10
105.647913
 20
-74.654269
 30
0.0
 10
105.647913
 20
-80.589967
 30
0.0
 10
100.831227
 20
-85.408911
 30
0.0
 10
94.898916
 20
-85.408911
 30
0.0
  0
SPLINE
  5
13c
100
AcDbEntity
  8
0
 62
7
100
AcDbSpline
 70
8
 71
3
 72
8
 73
4
 74
0
 40
0
 40
0
 40
0
 40
0
 40
1
 40
1
 40
1
 40
1
 10
94.898916
 20
-85.408911
 30
0.0
 10
91.820153
 20
-85.408911
 30
0.0
 10
89.041676
 20
-84.110971
 30
0.0
 10
87.081360
 20
-82.032687
 30
0.0
  0
LINE
  5
13d
100
AcDbEntity
  8
0
 62
7
100
AcDbLine
 10
87.081360
 20
-82.032687
 30
0.0
 11
87.081360
 21
-82.041718
 31
0.0
  0
LINE
  5
13e
100
AcDbEntity
  8
0
 62
7
100
AcDbLine
 10
87.081360
 20
-82.041718
 30
0.0
 11
73.393300
 21
-84.619818
 31
0.0
  0
LINE
  5
13f
100
AcDbEntity
  8
0
 62
7
100
AcDbLine
 10
73.393300
 20
-84.619818
 30
0.0
 11
73.393300
 21
-63.371871
 31
0.0
  0
LINE
  5
140
100
AcDbEntity
  8
0
 62
7
100
AcDbLine
 10
73.393300
 20
-63.371871
 30
0.0
 11
68.160900
 21
-63.371871
 31
0.0
  0
LINE
  5
141
100
AcDbEntity
  8
0
 62
7
100
AcDbLine
 10
68.160900
 20
-63.371871
 30
0.0
 11
68.160900
 21
-62.369418
 31
0.0
  0
SPLINE
  5
142
100
AcDbEntity
  8
0
 62
7
100
AcDbSpline
 70
8
 71
3
 72
8
 73
4
 74
0
 40
0
 40
0
 40
0
 40
0
 40
1
 40
1
 40
1
 40
1
 10
68.160900
 20
-62.369418
 30
0.0
 10
68.160900
 20
-59.123016
 30
0.0
 10
67.564564
 20
-57.014533
 30
0.0
 10
66.371611
 20
-56.043689
 30
0.0
  0
SPLINE
  5
143
100
AcDbEntity
  8
0
 62
7
100
AcDbSpline
 70
8
 71
3
 72
8
 73
4
 74
0
 40
0
 40
0
 40
0
 40
0
 40
1
 40
1
 40
1
 40
1
 10
66.371611
 20
-56.043689
 30
0.0
 10
65.178658
 20
-55.073127
 30
0.0
 10
63.135087
 20
-54.587704
 30
0.0
 10
60.240333
 20
-54.587704
 30
0.0
  0
LINE
  5
144
100
AcDbEntity
  8
0
 62
7
100
AcDbLine
 10
60.240333
 20
-54.587704
 30
0.0
 11
21.973822
 21
-54.587704
 31
0.0
  0
SPLINE
  5
145
100
AcDbEntity
  8
0
 62
7
100
AcDbSpline
 70
8
 71
3
 72
8
 73
4
 74
0
 40
0
 40
0
 40
0
 40
0
 40
1
 40
1
 40
1
 40
1
 10
21.973822
 20
-54.587704
 30
0.0
 10
19.015569
 20
-54.587704
 30
0.0
 10
16.955911
 20
-55.088931
 30
0.0
 10
15.794849
 20
-56.091384
 30
0.0
  0
SPLINE
  5
146
100
AcDbEntity
  8
0
 62
7
100
AcDbSpline
 70
8
 71
3
 72
8
 73
4
 74
0
 40
0
 40
0
 40
0
 40
0
 40
1
 40
1
 40
1
 40
1
 10
15.794849
 20
-56.091384
 30
0.0
 10
14.633787
 20
-57.094120
 30
0.0
 10
14.053256
 20
-59.186516
 30
0.0
 10
14.053256
 20
-62.369418
 30
0.0
  0
LINE
  5
147
100
AcDbEntity
  8
0
 62
7
100
AcDbLine
 10
14.053256
 20
-62.369418
 30
0.0
 11
14.053256
 21
-63.371871
 31
0.0
  0
LINE
  5
148
100
AcDbEntity
  8
0
 62
7
100
AcDbLine
 10
14.053256
 20
-63.371871
 30
0.0
 11
8.757073
 21
-63.371871
 31
0.0
  0
LINE
  5
149
100
AcDbEntity
  8
0
 62
7
100
AcDbLine
 10
8.757073
 20
-63.371871
 30
0.0
 11
8.757073
 21
-28.856093
 31
0.0
  0
LINE
  5
14a
100
AcDbEntity
  8
0
 62
7
100
AcDbLine
 10
8.757073
 20
-28.856093
 30
0.0
 11
14.053256
 21
-28.856093
 31
0.0
  0
LINE
  5
14b
100
AcDbEntity
  8
0
 62
7
100
AcDbLine
 10
14.053256
 20
-28.856093
 30
0.0
 11
14.053256
 21
-28.856093
 31
0.0
  0
LINE
  5
14c
100
AcDbEntity
  8
0
 62
7
100
AcDbLine
 10
73.393300
 20
-23.031873
 30
0.0
 11
68.160900
 21
-23.031873
 31
0.0
  0
SPLINE
  5
14d
100
AcDbEntity
  8
0
 62
7
100
AcDbSpline
 70
8
 71
3
 72
8
 73
4
 74
0
 40
0
 40
0
 40
0
 40
0
 40
1
 40
1
 40
1
 40
1
 10
68.160900
 20
-23.031873
 30
0.0
 10
68.160900
 20
-18.194020
 30
0.0
 10
67.190620
 20
-15.775376
 30
0.0
 10
65.250342
 20
-15.775376
 30
0.0
  0
SPLINE
  5
14e
100
AcDbEntity
  8
0
 62
7
100
AcDbSpline
 70
8
 71
3
 72
8
 73
4
 74
0
 40
0
 40
0
 40
0
 40
0
 40
1
 40
1
 40
1
 40
1
 10
65.250342
 20
-15.775376
 30
0.0
 10
64.423431
 20
-15.775376
 30
0.0
 10
62.578262
 20
-16.762024
 30
0.0
 10
59.715400
 20
-18.735322
 30
0.0
  0
LINE
  5
14f
100
AcDbEntity
  8
0
 62
7
100
AcDbLine
 10
59.715400
 20
-18.735322
 30
0.0
 11
41.775098
 21
-31.052064
 31
0.0
  0
LINE
  5
150
100
AcDbEntity
  8
0
 62
7
100
AcDbLine
 10
41.775098
 20
-31.052064
 30
0.0
 11
47.882387
 21
-37.639978
 31
0.0
  0
LINE
  5
151
100
AcDbEntity
  8
0
 62
7
100
AcDbLine
 10
47.882387
 20
-37.639978
 30
0.0
 11
60.240333
 21
-37.639978
 31
0.0
  0
SPLINE
  5
152
100
AcDbEntity
  8
0
 62
7
100
AcDbSpline
 70
8
 71
3
 72
8
 73
4
 74
0
 40
0
 40
0
 40
0
 40
0
 40
1
 40
1
 40
1
 40
1
 10
60.240333
 20
-37.639978
 30
0.0
 10
63.230478
 20
-37.639978
 30
0.0
 10
65.298038
 20
-37.138751
 30
0.0
 10
66.443296
 20
-36.136298
 30
0.0
  0
SPLINE
  5
153
100
AcDbEntity
  8
0
 62
7
100
AcDbSpline
 70
8
 71
3
 72
8
 73
4
 74
0
 40
0
 40
0
 40
0
 40
0
 40
1
 40
1
 40
1
 40
1
 10
66.443296
 20
-36.136298
 30
0.0
 10
67.588271
 20
-35.133844
 30
0.0
 10
68.160900
 20
-32.961580
 30
0.0
 10
68.160900
 20
-29.619787
 30
0.0
  0
LINE
  5
154
100
AcDbEntity
  8
0
 62
7
100
AcDbLine
 10
68.160900
 20
-29.619787
 30
0.0
 11
73.393300
 21
-29.619787
 31
0.0
  0
LINE
  5
155
100
AcDbEntity
  8
0
 62
7
100
AcDbLine
 10
73.393300
 20
-29.619787
 30
0.0
 11
73.393300
 21
-23.031873
 31
0.0
  0
LINE
  5
156
100
AcDbEntity
  8
0
 62
7
100
AcDbLine
 10
73.393300
 20
-23.031873
 30
0.0
 11
73.393300
 21
-23.031873
 31
0.0
  0
LINE
  5
157
100
AcDbEntity
  8
0
 62
1
100
AcDbLine
 10
73.393300
 20
-84.619818
 30
0.0
 11
73.393300
 21
26.238482
 31
0.0
  0
LINE
  5
158
100
AcDbEntity
  8
0
 62
1
100
AcDbLine
 10
73.393300
 20
26.238482
 30
0.0
 11
73.393300
 21
-84.619818
 31
0.0
  0
LINE
  5
159
100
AcDbEntity
  8
0
 62
1
100
AcDbLine
 10
73.393300
 20
-84.619818
 30
0.0
 11
73.393300
 21
-84.619818
 31
0.0
  0
SPLINE
  5
15a
100
AcDbEntity
  8
0
 62
7
100
AcDbSpline
 70
8
 71
3
 72
8
 73
4
 74
0
 40
0
 40
0
 40
0
 40
0
 40
1
 40
1
 40
1
 40
1
 10
203.458798
 20
-7.432322
 30
0.0
 10
206.526836
 20
-8.230729
 30
0.0
 10
209.406913
 20
-9.370342
 30
0.0
 10
212.099313
 20
-10.851444
 30
0.0
  0
SPLINE
  5
15b
100
AcDbEntity
  8
0
 62
7
100
AcDbSpline
 70
8
 71
3
 72
8
 73
4
 74
0
 40
0
 40
0
 40
0
 40
0
 40
1
 40
1
 40
1
 40
1
 10
212.099313
 20
-10.851444
 30
0.0
 10
217.939338
 20
-14.064262
 30
0.0
 10
222.100704
 20
-18.382544
 30
0.0
 10
224.583131
 20
-23.806009
 30
0.0
  0
SPLINE
  5
15c
100
AcDbEntity
  8
0
 62
7
100
AcDbSpline
 70
8
 71
3
 72
8
 73
4
 74
0
 40
0
 40
0
 40
0
 40
0
 40
1
 40
1
 40
1
 40
1
 10
224.583131
 20
-23.806009
 30
0.0
 10
227.065558
 20
-29.229473
 30
0.0
 10
228.307053
 20
-34.597058
 30
0.0
 10
228.307053
 20
-39.909327
 30
0.0
  0
SPLINE
  5
15d
100
AcDbEntity
  8
0
 62
7
100
AcDbSpline
 70
8
 71
3
 72
8
 73
4
 74
0
 40
0
 40
0
 40
0
 40
0
 40
1
 40
1
 40
1
 40
1
 10
228.307053
 20
-39.909327
 30
0.0
 10
228.307053
 20
-45.730442
 30
0.0
 10
226.683711
 20
-51.408471
 30
0.0
 10
223.437591
 20
-56.943131
 30
0.0
  0
SPLINE
  5
15e
100
AcDbEntity
  8
0
 62
7
100
AcDbSpline
 70
8
 71
3
 72
8
 73
4
 74
0
 40
0
 40
0
 40
0
 40
0
 40
1
 40
1
 40
1
 40
1
 10
223.437591
 20
-56.943131
 30
0.0
 10
220.191189
 20
-62.478073
 30
0.0
 10
215.791062
 20
-66.573400
 30
0.0
 10
210.237493
 20
-69.229393
 30
0.0
  0
SPLINE
  5
15f
100
AcDbEntity
  8
0
 62
7
100
AcDbSpline
 70
8
 71
3
 72
8
 73
4
 74
0
 40
0
 40
0
 40
0
 40
0
 40
1
 40
1
 40
1
 40
1
 10
210.237493
 20
-69.229393
 30
0.0
 10
204.683642
 20
-71.885669
 30
0.0
 10
198.740042
 20
-73.213524
 30
0.0
 10
192.406693
 20
-73.213524
 30
0.0
  0
SPLINE
  5
160
100
AcDbEntity
  8
0
 62
7
100
AcDbSpline
 70
8
 71
3
 72
8
 73
4
 74
0
 40
0
 40
0
 40
0
 40
0
 40
1
 40
1
 40
1
 40
1
 10
192.406693
 20
-73.213524
 30
0.0
 10
181.012818
 20
-73.213524
 30
0.0
 10
172.077380
 20
-69.929304
 30
0.0
 10
165.600662
 20
-63.360582
 30
0.0
  0
SPLINE
  5
161
100
AcDbEntity
  8
0
 62
7
100
AcDbSpline
 70
8
 71
3
 72
8
 73
4
 74
0
 40
0
 40
0
 40
0
 40
0
 40
1
 40
1
 40
1
 40
1
 10
165.600662
 20
-63.360582
 30
0.0
 10
159.124227
 20
-56.792142
 30
0.0
 10
155.885727
 20
-48.736391
 30
0.0
 10
155.885727
 20
-39.193611
 30
0.0
  0
SPLINE
  5
162
100
AcDbEntity
  8
0
 62
7
100
AcDbSpline
 70
8
 71
3
 72
8
 73
4
 74
0
 40
0
 40
0
 40
0
 40
0
 40
1
 40
1
 40
1
 40
1
 10
155.885727
 20
-39.193611
 30
0.0
 10
155.885727
 20
-30.128069
 30
0.0
 10
159.116042
 20
-22.334784
 30
0.0
 10
165.576956
 20
-15.813758
 30
0.0
  0
SPLINE
  5
163
100
AcDbEntity
  8
0
 62
7
100
AcDbSpline
 70
8
 71
3
 72
8
 73
4
 74
0
 40
0
 40
0
 40
0
 40
0
 40
1
 40
1
 40
1
 40
1
 10
165.576956
 20
-15.813758
 30
0.0
 10
169.593542
 20
-11.759636
 30
0.0
 10
174.508160
 20
-8.965918
 30
0.0
 10
180.321091
 20
-7.432322
 30
0.0
  0
LINE
  5
164
100
AcDbEntity
  8
0
 62
7
100
AcDbLine
 10
180.321091
 20
-7.432322
 30
0.0
 11
137.646269
 21
-7.432322
 31
0.0
  0
LINE
  5
165
100
AcDbEntity
  8
0
 62
7
100
AcDbLine
 10
137.646269
 20
-7.432322
 30
0.0
 11
140.224369
 21
6.255738
 31
0.0
  0
LINE
  5
166
100
AcDbEntity
  8
0
 62
7
100
AcDbLine
 10
140.224369
 20
6.255738
 30
0.0
 11
140.233682
 21
6.255738
 31
0.0
  0
SPLINE
  5
167
100
AcDbEntity
  8
0
 62
7
100
AcDbSpline
 70
8
 71
3
 72
8
 73
4
 74
0
 40
0
 40
0
 40
0
 40
0
 40
1
 40
1
 40
1
 40
1
 10
140.233682
 20
6.255738
 30
0.0
 10
138.155116
 20
8.216336
 30
0.0
 10
136.857176
 20
10.994531
 30
0.0
 10
136.857176
 20
14.073293
 30
0.0
  0
SPLINE
  5
168
100
AcDbEntity
  8
0
 62
7
100
AcDbSpline
 70
8
 71
3
 72
8
 73
4
 74
0
 40
0
 40
0
 40
0
 40
0
 40
1
 40
1
 40
1
 40
1
 10
136.857176
 20
14.073293
 30
0.0
 10
136.857176
 20
20.005887
 30
0.0
 10
141.676402
 20
24.822291
 30
0.0
 10
147.612100
 20
24.822291
 30
0.0
  0
SPLINE
  5
169
100
AcDbEntity
  8
0
 62
7
100
AcDbSpline
 70
8
 71
3
 72
8
 73
4
 74
0
 40
0
 40
0
 40
0
 40
0
 40
1
 40
1
 40
1
 40
1
 10
147.612100
 20
24.822291
 30
0.0
 10
153.547798
 20
24.822291
 30
0.0
 10
158.366742
 20
20.005887
 30
0.0
 10
158.366742
 20
14.073293
 30
0.0
  0
SPLINE
  5
16a
100
AcDbEntity
  8
0
 62
7
100
AcDbSpline
 70
8
 71
3
 72
8
 73
4
 74
0
 40
0
 40
0
 40
0
 40
0
 40
1
 40
1
 40
1
 40
1
 10
158.366742
 20
14.073293
 30
0.0
 10
158.366742
 20
10.994531
 30
0.0
 10
227.784096
 20
10.994531
 30
0.0
 10
227.784096
 20
14.073293
 30
0.0
  0
SPLINE
  5
16b
100
AcDbEntity
  8
0
 62
7
100
AcDbSpline
 70
8
 71
3
 72
8
 73
4
 74
0
 40
0
 40
0
 40
0
 40
0
 40
1
 40
1
 40
1
 40
1
 10
227.784096
 20
14.073293
 30
0.0
 10
227.784096
 20
20.005887
 30
0.0
 10
232.603322
 20
24.822291
 30
0.0
 10
238.539020
 20
24.822291
 30
0.0
  0
SPLINE
  5
16c
100
AcDbEntity
  8
0
 62
7
100
AcDbSpline
 70
8
 71
3
 72
8
 73
4
 74
0
 40
0
 40
0
 40
0
 40
0
 40
1
 40
1
 40
1
 40
1
 10
238.539020
 20
24.822291
 30
0.0
 10
244.474718
 20
24.822291
 30
0.0
 10
249.293662
 20
20.005887
 30
0.0
 10
249.293662
 20
14.073293
 30
0.0
  0
SPLINE
  5
16d
100
AcDbEntity
  8
0
 62
7
100
AcDbSpline
 70
8
 71
3
 72
8
 73
4
 74
0
 40
0
 40
0
 40
0
 40
0
 40
1
 40
1
 40
1
 40
1
 10
249.293662
 20
14.073293
 30
0.0
 10
249.293662
 20
10.994531
 30
0.0
 10
247.996004
 20
8.216336
 30
0.0
 10
245.917438
 20
6.255738
 30
0.0
  0
LINE
  5
16e
100
AcDbEntity
  8
0
 62
7
100
AcDbLine
 10
245.917438
 20
6.255738
 30
0.0
 11
245.926469
 21
6.255738
 31
0.0
  0
LINE
  5
16f
100
AcDbEntity
  8
0
 62
7
100
AcDbLine
 10
245.926469
 20
6.255738
 30
0.0
 11
248.504569
 21
-7.432322
 31
0.0
  0
LINE
  5
170
100
AcDbEntity
  8
0
 62
7
100
AcDbLine
 10
248.504569
 20
-7.432322
 30
0.0
 11
203.458798
 21
-7.432322
 31
0.0
  0
LINE
  5
171
100
AcDbEntity
  8
0
 62
7
100
AcDbLine
 10
203.458798
 20
-7.432322
 30
0.0
 11
203.458798
 21
-7.432322
 31
0.0
  0
SPLINE
  5
172
100
AcDbEntity
  8
0
 62
7
100
AcDbSpline
 70
8
 71
3
 72
8
 73
4
 74
0
 40
0
 40
0
 40
0
 40
0
 40
1
 40
1
 40
1
 40
1
 10
208.351684
 20
-40.434260
 30
0.0
 10
208.351684
 20
-30.478024
 30
0.0
 10
207.015080
 20
-23.296880
 30
0.0
 10
204.341589
 20
-18.891391
 30
0.0
  0
SPLINE
  5
173
100
AcDbEntity
  8
0
 62
7
100
AcDbSpline
 70
8
 71
3
 72
8
 73
4
 74
0
 40
0
 40
0
 40
0
 40
0
 40
1
 40
1
 40
1
 40
1
 10
204.341589
 20
-18.891391
 30
0.0
 10
201.668098
 20
-14.485902
 30
0.0
 10
197.689893
 20
-12.282876
 30
0.0
 10
192.406693
 20
-12.282876
 30
0.0
  0
SPLINE
  5
174
100
AcDbEntity
  8
0
 62
7
100
AcDbSpline
 70
8
 71
3
 72
8
 73
4
 74
0
 40
0
 40
0
 40
0
 40
0
 40
1
 40
1
 40
1
 40
1
 10
192.406693
 20
-12.282876
 30
0.0
 10
186.900538
 20
-12.282876
 30
0.0
 10
182.747356
 20
-14.294838
 30
0.0
 10
179.946582
 20
-18.318762
 30
0.0
  0
SPLINE
  5
175
100
AcDbEntity
  8
0
 62
7
100
AcDbSpline
 70
8
 71
3
 72
8
 73
4
 74
0
 40
0
 40
0
 40
0
 40
0
 40
1
 40
1
 40
1
 40
1
 10
179.946582
 20
-18.318762
 30
0.0
 10
177.145809
 20
-22.342687
 30
0.0
 10
175.745422
 20
-29.396267
 30
0.0
 10
175.745422
 20
-39.479784
 30
0.0
  0
SPLINE
  5
176
100
AcDbEntity
  8
0
 62
7
100
AcDbSpline
 70
8
 71
3
 72
8
 73
4
 74
0
 40
0
 40
0
 40
0
 40
0
 40
1
 40
1
 40
1
 40
1
 10
175.745422
 20
-39.479784
 30
0.0
 10
175.745422
 20
-48.704500
 30
0.0
 10
177.058320
 20
-55.591287
 30
0.0
 10
179.684116
 20
-60.140144
 30
0.0
  0
SPLINE
  5
177
100
AcDbEntity
  8
0
 62
7
100
AcDbSpline
 70
8
 71
3
 72
8
 73
4
 74
0
 40
0
 40
0
 40
0
 40
0
 40
1
 40
1
 40
1
 40
1
 10
179.684116
 20
-60.140144
 30
0.0
 10
182.309629
 20
-64.688720
 30
0.0
 10
186.486800
 20
-66.963149
 30
0.0
 10
192.215629
 20
-66.963149
 30
0.0
  0
SPLINE
  5
178
100
AcDbEntity
  8
0
 62
7
100
AcDbSpline
 70
8
 71
3
 72
8
 73
4
 74
0
 40
0
 40
0
 40
0
 40
0
 40
1
 40
1
 40
1
 40
1
 10
192.215629
 20
-66.963149
 30
0.0
 10
197.626111
 20
-66.963149
 30
0.0
 10
201.668098
 20
-64.847893
 30
0.0
 10
204.341589
 20
-60.617100
 30
0.0
  0
SPLINE
  5
179
100
AcDbEntity
  8
0
 62
7
100
AcDbSpline
 70
8
 71
3
 72
8
 73
4
 74
0
 40
0
 40
0
 40
0
 40
0
 40
1
 40
1
 40
1
 40
1
 10
204.341589
 20
-60.617100
 30
0.0
 10
207.015080
 20
-56.386589
 30
0.0
 10
208.351684
 20
-49.658976
 30
0.0
 10
208.351684
 20
-40.434260
 30
0.0
  0
LINE
  5
17a
100
AcDbEntity
  8
0
 62
7
100
AcDbLine
 10
208.351684
 20
-40.434260
 30
0.0
 11
208.351684
 21
-40.434260
 31
0.0
  0
LINE
  5
17b
100
AcDbEntity
  8
0
 62
7
100
AcDbLine
 10
252.553893
 20
-39.499822
 30
0.0
 11
252.553893
 21
-34.267422
 31
0.0
  0
SPLINE
  5
17c
100
AcDbEntity
  8
0
 62
7
100
AcDbSpline
 70
8
 71
3
 72
8
 73
4
 74
0
 40
0
 40
0
 40
0
 40
0
 40
1
 40
1
 40
1
 40
1
 10
252.553893
 20
-34.267422
 30
0.0
 10
254.622582
 20
-34.267422
 30
0.0
 10
256.420620
 20
-33.766478
 30
0.0
 10
257.948571
 20
-32.764307
 30
0.0
  0
SPLINE
  5
17d
100
AcDbEntity
  8
0
 62
7
100
AcDbSpline
 70
8
 71
3
 72
8
 73
4
 74
0
 40
0
 40
0
 40
0
 40
0
 40
1
 40
1
 40
1
 40
1
 10
257.948571
 20
-32.764307
 30
0.0
 10
259.476240
 20
-31.762418
 30
0.0
 10
260.446802
 20
-30.601356
 30
0.0
 10
260.860540
 20
-29.281402
 30
0.0
  0
SPLINE
  5
17e
100
AcDbEntity
  8
0
 62
7
100
AcDbSpline
 70
8
 71
3
 72
8
 73
4
 74
0
 40
0
 40
0
 40
0
 40
0
 40
1
 40
1
 40
1
 40
1
 10
260.860540
 20
-29.281402
 30
0.0
 10
261.274278
 20
-27.961167
 30
0.0
 10
261.481147
 20
-25.885704
 30
0.0
 10
261.481147
 20
-23.054733
 30
0.0
  0
LINE
  5
17f
100
AcDbEntity
  8
0
 62
7
100
AcDbLine
 10
261.481147
 20
-23.054733
 30
0.0
 11
261.481147
 21
9.963291
 31
0.0
  0
SPLINE
  5
180
100
AcDbEntity
  8
0
 62
7
100
AcDbSpline
 70
8
 71
3
 72
8
 73
4
 74
0
 40
0
 40
0
 40
0
 40
0
 40
1
 40
1
 40
1
 40
1
 10
261.481147
 20
9.963291
 30
0.0
 10
261.481147
 20
16.547818
 30
0.0
 10
258.393918
 20
19.840222
 30
0.0
 10
252.219742
 20
19.840222
 30
0.0
  0
LINE
  5
181
100
AcDbEntity
  8
0
 62
7
100
AcDbLine
 10
252.219742
 20
19.840222
 30
0.0
 11
252.219742
 21
25.136404
 31
0.0
  0
LINE
  5
182
100
AcDbEntity
  8
0
 62
7
100
AcDbLine
 10
252.219742
 20
25.136404
 30
0.0
 11
274.084344
 21
25.136404
 31
0.0
  0
LINE
  5
183
100
AcDbEntity
  8
0
 62
7
100
AcDbLine
 10
274.084344
 20
25.136404
 30
0.0
 11
309.555162
 21
-14.466147
 31
0.0
  0
LINE
  5
184
100
AcDbEntity
  8
0
 62
7
100
AcDbLine
 10
309.555162
 20
-14.466147
 30
0.0
 11
309.555162
 21
9.247576
 31
0.0
  0
SPLINE
  5
185
100
AcDbEntity
  8
0
 62
7
100
AcDbSpline
 70
8
 71
3
 72
8
 73
4
 74
0
 40
0
 40
0
 40
0
 40
0
 40
1
 40
1
 40
1
 40
1
 10
309.555162
 20
9.247576
 30
0.0
 10
309.555162
 20
16.309340
 30
0.0
 10
306.579411
 20
19.840222
 30
0.0
 10
300.627627
 20
19.840222
 30
0.0
  0
LINE
  5
186
100
AcDbEntity
  8
0
 62
7
100
AcDbLine
 10
300.627627
 20
19.840222
 30
0.0
 11
300.627627
 21
25.136404
 31
0.0
  0
LINE
  5
187
100
AcDbEntity
  8
0
 62
7
100
AcDbLine
 10
300.627627
 20
25.136404
 30
0.0
 11
323.877093
 21
25.136404
 31
0.0
  0
LINE
  5
188
100
AcDbEntity
  8
0
 62
7
100
AcDbLine
 10
323.877093
 20
25.136404
 30
0.0
 11
323.877093
 21
19.840222
 31
0.0
  0
SPLINE
  5
189
100
AcDbEntity
  8
0
 62
7
100
AcDbSpline
 70
8
 71
3
 72
8
 73
4
 74
0
 40
0
 40
0
 40
0
 40
0
 40
1
 40
1
 40
1
 40
1
 10
323.877093
 20
19.840222
 30
0.0
 10
322.253751
 20
19.840222
 30
0.0
 10
320.733984
 20
19.394876
 30
0.0
 10
319.317793
 20
18.504182
 30
0.0
  0
SPLINE
  5
18a
100
AcDbEntity
  8
0
 62
7
100
AcDbSpline
 70
8
 71
3
 72
8
 73
4
 74
0
 40
0
 40
0
 40
0
 40
0
 40
1
 40
1
 40
1
 40
1
 10
319.317793
 20
18.504182
 30
0.0
 10
317.901602
 20
17.613489
 30
0.0
 10
316.938942
 20
16.476416
 30
0.0
 10
316.429531
 20
15.092680
 30
0.0
  0
SPLINE
  5
18b
100
AcDbEntity
  8
0
 62
7
100
AcDbSpline
 70
8
 71
3
 72
8
 73
4
 74
0
 40
0
 40
0
 40
0
 40
0
 40
1
 40
1
 40
1
 40
1
 10
316.429531
 20
15.092680
 30
0.0
 10
315.920402
 20
13.708944
 30
0.0
 10
315.665838
 20
11.696982
 30
0.0
 10
315.665838
 20
9.056793
 30
0.0
  0
LINE
  5
18c
100
AcDbEntity
  8
0
 62
7
100
AcDbLine
 10
315.665838
 20
9.056793
 30
0.0
 11
315.665838
 21
-39.499822
 31
0.0
  0
LINE
  5
18d
100
AcDbEntity
  8
0
 62
7
100
AcDbLine
 10
315.665838
 20
-39.499822
 30
0.0
 11
342.617778
 21
-39.499822
 31
0.0
  0
LINE
  5
18e
100
AcDbEntity
  8
0
 62
7
100
AcDbLine
 10
342.617778
 20
-39.499822
 30
0.0
 11
340.039678
 21
-53.187882
 31
0.0
  0
LINE
  5
18f
100
AcDbEntity
  8
0
 62
7
100
AcDbLine
 10
340.039678
 20
-53.187882
 30
0.0
 11
340.030364
 21
-53.187882
 31
0.0
  0
SPLINE
  5
190
100
AcDbEntity
  8
0
 62
7
100
AcDbSpline
 70
8
 71
3
 72
8
 73
4
 74
0
 40
0
 40
0
 40
0
 40
0
 40
1
 40
1
 40
1
 40
1
 10
340.030364
 20
-53.187882
 30
0.0
 10
342.108931
 20
-55.148480
 30
0.0
 10
343.406871
 20
-57.926676
 30
0.0
 10
343.406871
 20
-61.005438
 30
0.0
  0
SPLINE
  5
191
100
AcDbEntity
  8
0
 62
7
100
AcDbSpline
 70
8
 71
3
 72
8
 73
4
 74
0
 40
0
 40
0
 40
0
 40
0
 40
1
 40
1
 40
1
 40
1
 10
343.406871
 20
-61.005438
 30
0.0
 10
343.406871
 20
-66.937749
 30
0.0
 10
338.587644
 20
-71.754436
 30
0.0
 10
332.651947
 20
-71.754436
 30
0.0
  0
SPLINE
  5
192
100
AcDbEntity
  8
0
 62
7
100
AcDbSpline
 70
8
 71
3
 72
8
 73
4
 74
0
 40
0
 40
0
 40
0
 40
0
 40
1
 40
1
 40
1
 40
1
 10
332.651947
 20
-71.754436
 30
0.0
 10
326.716249
 20
-71.754436
 30
0.0
 10
321.897304
 20
-66.937749
 30
0.0
 10
321.897304
 20
-61.005438
 30
0.0
  0
SPLINE
  5
193
100
AcDbEntity
  8
0
 62
7
100
AcDbSpline
 70
8
 71
3
 72
8
 73
4
 74
0
 40
0
 40
0
 40
0
 40
0
 40
1
 40
1
 40
1
 40
1
 10
321.897304
 20
-61.005438
 30
0.0
 10
321.897304
 20
-57.926676
 30
0.0
 10
252.479951
 20
-57.926676
 30
0.0
 10
252.479951
 20
-61.005438
 30
0.0
  0
SPLINE
  5
194
100
AcDbEntity
  8
0
 62
7
100
AcDbSpline
 70
8
 71
3
 72
8
 73
4
 74
0
 40
0
 40
0
 40
0
 40
0
 40
1
 40
1
 40
1
 40
1
 10
252.479951
 20
-61.005438
 30
0.0
 10
252.479951
 20
-66.937749
 30
0.0
 10
247.660724
 20
-71.754436
 30
0.0
 10
241.725027
 20
-71.754436
 30
0.0
  0
SPLINE
  5
195
100
AcDbEntity
  8
0
 62
7
100
AcDbSpline
 70
8
 71
3
 72
8
 73
4
 74
0
 40
0
 40
0
 40
0
 40
0
 40
1
 40
1
 40
1
 40
1
 10
241.725027
 20
-71.754436
 30
0.0
 10
235.789329
 20
-71.754436
 30
0.0
 10
230.970102
 20
-66.937749
 30
0.0
 10
230.970102
 20
-61.005438
 30
0.0
  0
SPLINE
  5
196
100
AcDbEntity
  8
0
 62
7
100
AcDbSpline
 70
8
 71
3
 72
8
 73
4
 74
0
 40
0
 40
0
 40
0
 40
0
 40
1
 40
1
 40
1
 40
1
 10
230.970102
 20
-61.005438
 30
0.0
 10
230.970102
 20
-57.926676
 30
0.0
 10
232.268042
 20
-55.148198
 30
0.0
 10
234.346609
 20
-53.187882
 30
0.0
  0
LINE
  5
197
100
AcDbEntity
  8
0
 62
7
100
AcDbLine
 10
234.346609
 20
-53.187882
 30
0.0
 11
234.337296
 21
-53.187882
 31
0.0
  0
LINE
  5
198
100
AcDbEntity
  8
0
 62
7
100
AcDbLine
 10
234.337296
 20
-53.187882
 30
0.0
 11
231.759196
 21
-39.499822
 31
0.0
  0
LINE
  5
199
100
AcDbEntity
  8
0
 62
7
100
AcDbLine
 10
231.759196
 20
-39.499822
 30
0.0
 11
252.553893
 21
-39.499822
 31
0.0
  0
LINE
  5
19a
100
AcDbEntity
  8
0
 62
7
100
AcDbLine
 10
252.553893
 20
-39.499822
 30
0.0
 11
252.553893
 21
-39.499822
 31
0.0
  0
LINE
  5
19b
100
AcDbEntity
  8
0
 62
7
100
AcDbLine
 10
308.567667
 20
-39.499822
 30
0.0
 11
267.591822
 21
6.718864
 31
0.0
  0
LINE
  5
19c
100
AcDbEntity
  8
0
 62
7
100
AcDbLine
 10
267.591822
 20
6.718864
 30
0.0
 11
267.591822
 21
-23.007038
 31
0.0
  0
SPLINE
  5
19d
100
AcDbEntity
  8
0
 62
7
100
AcDbSpline
 70
8
 71
3
 72
8
 73
4
 74
0
 40
0
 40
0
 40
0
 40
0
 40
1
 40
1
 40
1
 40
1
 10
267.591822
 20
-23.007038
 30
0.0
 10
267.591822
 20
-27.778287
 30
0.0
 10
268.459091
 20
-30.848018
 30
0.0
 10
270.193629
 20
-32.215667
 30
0.0
  0
SPLINE
  5
19e
100
AcDbEntity
  8
0
 62
7
100
AcDbSpline
 70
8
 71
3
 72
8
 73
4
 74
0
 40
0
 40
0
 40
0
 40
0
 40
1
 40
1
 40
1
 40
1
 10
270.193629
 20
-32.215667
 30
0.0
 10
271.928167
 20
-33.583598
 30
0.0
 10
274.148127
 20
-34.267422
 30
0.0
 10
276.853227
 20
-34.267422
 30
0.0
  0
LINE
  5
19f
100
AcDbEntity
  8
0
 62
7
100
AcDbLine
 10
276.853227
 20
-34.267422
 30
0.0
 11
276.853227
 21
-39.499822
 31
0.0
  0
LINE
  5
1a0
100
AcDbEntity
  8
0
 62
7
100
AcDbLine
 10
276.853227
 20
-39.499822
 30
0.0
 11
308.567667
 21
-39.499822
 31
0.0
  0
LINE
  5
1a1
100
AcDbEntity
  8
0
 62
7
100
AcDbLine
 10
308.567667
 20
-39.499822
 30
0.0
 11
308.567667
 21
-39.499822
 31
0.0
  0
LINE
  5
1a2
100
AcDbEntity
  8
0
 62
1
100
AcDbLine
 10
231.759196
 20
-39.499822
 30
0.0
 11
342.617778
 21
-39.499822
 31
0.0
  0
LINE
  5
1a3
100
AcDbEntity
  8
0
 62
1
100
AcDbLine
 10
342.617778
 20
-39.499822
 30
0.0
 11
231.759196
 21
-39.499822
 31
0.0
  0
LINE
  5
1a4
100
AcDbEntity
  8
0
 62
1
100
AcDbLine
 10
231.759196
 20
-39.499822
 30
0.0
 11
231.759196
 21
-39.499822
 31
0.0
  0
LINE
  5
1a5
100
AcDbEntity
  8
0
 62
7
100
AcDbLine
 10
204.241118
 20
-165.744596
 30
0.0
 11
205.243571
 21
-165.744596
 31
0.0
  0
SPLINE
  5
1a6
100
AcDbEntity
  8
0
 62
7
100
AcDbSpline
 70
8
 71
3
 72
8
 73
4
 74
0
 40
0
 40
0
 40
0
 40
0
 40
1
 40
1
 40
1
 40
1
 10
205.243571
 20
-165.744596
 30
0.0
 10
208.458082
 20
-165.744596
 30
0.0
 10
210.550760
 20
-165.147978
 30
0.0
 10
211.521322
 20
-163.955307
 30
0.0
  0
SPLINE
  5
1a7
100
AcDbEntity
  8
0
 62
7
100
AcDbSpline
 70
8
 71
3
 72
8
 73
4
 74
0
 40
0
 40
0
 40
0
 40
0
 40
1
 40
1
 40
1
 40
1
 10
211.521322
 20
-163.955307
 30
0.0
 10
212.492167
 20
-162.762353
 30
0.0
 10
212.977307
 20
-160.718500
 30
0.0
 10
212.977307
 20
-157.824029
 30
0.0
  0
LINE
  5
1a8
100
AcDbEntity
  8
0
 62
7
100
AcDbLine
 10
212.977307
 20
-157.824029
 30
0.0
 11
212.977307
 21
-119.557518
 31
0.0
  0
SPLINE
  5
1a9
100
AcDbEntity
  8
0
 62
7
100
AcDbSpline
 70
8
 71
3
 72
8
 73
4
 74
0
 40
0
 40
0
 40
0
 40
0
 40
1
 40
1
 40
1
 40
1
 10
212.977307
 20
-119.557518
 30
0.0
 10
212.977307
 20
-116.599264
 30
0.0
 10
212.476080
 20
-114.539607
 30
0.0
 10
211.473627
 20
-113.378544
 30
0.0
  0
SPLINE
  5
1aa
100
AcDbEntity
  8
0
 62
7
100
AcDbSpline
 70
8
 71
3
 72
8
 73
4
 74
0
 40
0
 40
0
 40
0
 40
0
 40
1
 40
1
 40
1
 40
1
 10
211.473627
 20
-113.378544
 30
0.0
 10
210.471173
 20
-112.217482
 30
0.0
 10
208.394582
 20
-111.636951
 30
0.0
 10
205.243571
 20
-111.636951
 30
0.0
  0
LINE
  5
1ab
100
AcDbEntity
  8
0
 62
7
100
AcDbLine
 10
205.243571
 20
-111.636951
 30
0.0
 11
204.241118
 21
-111.636951
 31
0.0
  0
LINE
  5
1ac
100
AcDbEntity
  8
0
 62
7
100
AcDbLine
 10
204.241118
 20
-111.636951
 30
0.0
 11
204.241118
 21
-106.404551
 31
0.0
  0
LINE
  5
1ad
100
AcDbEntity
  8
0
 62
7
100
AcDbLine
 10
204.241118
 20
-106.404551
 30
0.0
 11
166.738582
 21
-106.404551
 31
0.0
  0
LINE
  5
1ae
100
AcDbEntity
  8
0
 62
7
100
AcDbLine
 10
166.738582
 20
-106.404551
 30
0.0
 11
169.316682
 21
-92.716491
 31
0.0
  0
LINE
  5
1af
100
AcDbEntity
  8
0
 62
7
100
AcDbLine
 10
169.316682
 20
-92.716491
 30
0.0
 11
169.325713
 21
-92.716491
 31
0.0
  0
SPLINE
  5
1b0
100
AcDbEntity
  8
0
 62
7
100
AcDbSpline
 70
8
 71
3
 72
8
 73
4
 74
0
 40
0
 40
0
 40
0
 40
0
 40
1
 40
1
 40
1
 40
1
 10
169.325713
 20
-92.716491
 30
0.0
 10
167.247429
 20
-90.755893
 30
0.0
 10
165.949489
 20
-87.977698
 30
0.0
 10
165.949489
 20
-84.898936
 30
0.0
  0
SPLINE
  5
1b1
100
AcDbEntity
  8
0
 62
7
100
AcDbSpline
 70
8
 71
3
 72
8
 73
4
 74
0
 40
0
 40
0
 40
0
 40
0
 40
1
 40
1
 40
1
 40
1
 10
165.949489
 20
-84.898936
 30
0.0
 10
165.949489
 20
-78.966624
 30
0.0
 10
170.768716
 20
-74.149938
 30
0.0
 10
176.704413
 20
-74.149938
 30
0.0
  0
SPLINE
  5
1b2
100
AcDbEntity
  8
0
 62
7
100
AcDbSpline
 70
8
 71
3
 72
8
 73
4
 74
0
 40
0
 40
0
 40
0
 40
0
 40
1
 40
1
 40
1
 40
1
 10
176.704413
 20
-74.149938
 30
0.0
 10
182.640111
 20
-74.149938
 30
0.0
 10
187.459056
 20
-78.966624
 30
0.0
 10
187.459056
 20
-84.898936
 30
0.0
  0
SPLINE
  5
1b3
100
AcDbEntity
  8
0
 62
7
100
AcDbSpline
 70
8
 71
3
 72
8
 73
4
 74
0
 40
0
 40
0
 40
0
 40
0
 40
1
 40
1
 40
1
 40
1
 10
187.459056
 20
-84.898936
 30
0.0
 10
187.459056
 20
-87.977698
 30
0.0
 10
256.876409
 20
-87.977698
 30
0.0
 10
256.876409
 20
-84.898936
 30
0.0
  0
SPLINE
  5
1b4
100
AcDbEntity
  8
0
 62
7
100
AcDbSpline
 70
8
 71
3
 72
8
 73
4
 74
0
 40
0
 40
0
 40
0
 40
0
 40
1
 40
1
 40
1
 40
1
 10
256.876409
 20
-84.898936
 30
0.0
 10
256.876409
 20
-78.966624
 30
0.0
 10
261.695636
 20
-74.149938
 30
0.0
 10
267.631333
 20
-74.149938
 30
0.0
  0
SPLINE
  5
1b5
100
AcDbEntity
  8
0
 62
7
100
AcDbSpline
 70
8
 71
3
 72
8
 73
4
 74
0
 40
0
 40
0
 40
0
 40
0
 40
1
 40
1
 40
1
 40
1
 10
267.631333
 20
-74.149938
 30
0.0
 10
273.567031
 20
-74.149938
 30
0.0
 10
278.385976
 20
-78.966624
 30
0.0
 10
278.385976
 20
-84.898936
 30
0.0
  0
SPLINE
  5
1b6
100
AcDbEntity
  8
0
 62
7
100
AcDbSpline
 70
8
 71
3
 72
8
 73
4
 74
0
 40
0
 40
0
 40
0
 40
0
 40
1
 40
1
 40
1
 40
1
 10
278.385976
 20
-84.898936
 30
0.0
 10
278.385976
 20
-87.977698
 30
0.0
 10
277.088318
 20
-90.756176
 30
0.0
 10
275.009751
 20
-92.716491
 30
0.0
  0
LINE
  5
1b7
100
AcDbEntity
  8
0
 62
7
100
AcDbLine
 10
275.009751
 20
-92.716491
 30
0.0
 11
275.018782
 21
-92.716491
 31
0.0
  0
LINE
  5
1b8
100
AcDbEntity
  8
0
 62
7
100
AcDbLine
 10
275.018782
 20
-92.716491
 30
0.0
 11
277.596882
 21
-106.404551
 31
0.0
  0
LINE
  5
1b9
100
AcDbEntity
  8
0
 62
7
100
AcDbLine
 10
277.596882
 20
-106.404551
 30
0.0
 11
238.470440
 21
-106.404551
 31
0.0
  0
LINE
  5
1ba
100
AcDbEntity
  8
0
 62
7
100
AcDbLine
 10
238.470440
 20
-106.404551
 30
0.0
 11
238.470440
 21
-111.636951
 31
0.0
  0
SPLINE
  5
1bb
100
AcDbEntity
  8
0
 62
7
100
AcDbSpline
 70
8
 71
3
 72
8
 73
4
 74
0
 40
0
 40
0
 40
0
 40
0
 40
1
 40
1
 40
1
 40
1
 10
238.470440
 20
-111.636951
 30
0.0
 10
235.033256
 20
-111.636951
 30
0.0
 10
232.749513
 20
-112.161884
 30
0.0
 10
231.619778
 20
-113.211469
 30
0.0
  0
SPLINE
  5
1bc
100
AcDbEntity
  8
0
 62
7
100
AcDbSpline
 70
8
 71
3
 72
8
 73
4
 74
0
 40
0
 40
0
 40
0
 40
0
 40
1
 40
1
 40
1
 40
1
 10
231.619778
 20
-113.211469
 30
0.0
 10
230.490042
 20
-114.261336
 30
0.0
 10
229.925033
 20
-116.376591
 30
0.0
 10
229.925033
 20
-119.557518
 30
0.0
  0
LINE
  5
1bd
100
AcDbEntity
  8
0
 62
7
100
AcDbLine
 10
229.925033
 20
-119.557518
 30
0.0
 11
229.925033
 21
-157.824029
 31
0.0
  0
SPLINE
  5
1be
100
AcDbEntity
  8
0
 62
7
100
AcDbSpline
 70
8
 71
3
 72
8
 73
4
 74
0
 40
0
 40
0
 40
0
 40
0
 40
1
 40
1
 40
1
 40
1
 10
229.925033
 20
-157.824029
 30
0.0
 10
229.925033
 20
-160.909564
 30
0.0
 10
230.458151
 20
-163.000831
 30
0.0
 10
231.524387
 20
-164.098393
 30
0.0
  0
SPLINE
  5
1bf
100
AcDbEntity
  8
0
 62
7
100
AcDbSpline
 70
8
 71
3
 72
8
 73
4
 74
0
 40
0
 40
0
 40
0
 40
0
 40
1
 40
1
 40
1
 40
1
 10
231.524387
 20
-164.098393
 30
0.0
 10
232.590622
 20
-165.195673
 30
0.0
 10
234.905973
 20
-165.744596
 30
0.0
 10
238.470440
 20
-165.744596
 30
0.0
  0
LINE
  5
1c0
100
AcDbEntity
  8
0
 62
7
100
AcDbLine
 10
238.470440
 20
-165.744596
 30
0.0
 11
238.470440
 21
-171.040778
 31
0.0
  0
LINE
  5
1c1
100
AcDbEntity
  8
0
 62
7
100
AcDbLine
 10
238.470440
 20
-171.040778
 30
0.0
 11
204.241118
 21
-171.040778
 31
0.0
  0
LINE
  5
1c2
100
AcDbEntity
  8
0
 62
7
100
AcDbLine
 10
204.241118
 20
-171.040778
 30
0.0
 11
204.241118
 21
-165.744596
 31
0.0
  0
LINE
  5
1c3
100
AcDbEntity
  8
0
 62
7
100
AcDbLine
 10
204.241118
 20
-165.744596
 30
0.0
 11
204.241118
 21
-165.744596
 31
0.0
  0
LINE
  5
1c4
100
AcDbEntity
  8
0
 62
1
100
AcDbLine
 10
277.596882
 20
-106.404551
 30
0.0
 11
166.738582
 21
-106.404551
 31
0.0
  0
LINE
  5
1c5
100
AcDbEntity
  8
0
 62
1
100
AcDbLine
 10
166.738582
 20
-106.404551
 30
0.0
 11
277.596882
 21
-106.404551
 31
0.0
  0
LINE
  5
1c6
100
AcDbEntity
  8
0
 62
1
100
AcDbLine
 10
277.596882
 20
-106.404551
 30
0.0
 11
277.596882
 21
-106.404551
 31
0.0
  0
LINE
  5
1c7
100
AcDbEntity
  8
0
 62
7
100
AcDbLine
 10
239.525104
 20
-178.508096
 30
0.0
 11
239.525104
 21
-173.275978
 31
0.0
  0
SPLINE
  5
1c8
100
AcDbEntity
  8
0
 62
7
100
AcDbSpline
 70
8
 71
3
 72
8
 73
4
 74
0
 40
0
 40
0
 40
0
 40
0
 40
1
 40
1
 40
1
 40
1
 10
239.525104
 20
-173.275978
 30
0.0
 10
242.930398
 20
-173.275978
 30
0.0
 10
245.198053
 20
-172.743142
 30
0.0
 10
246.327789
 20
-171.677471
 30
0.0
  0
SPLINE
  5
1c9
100
AcDbEntity
  8
0
 62
7
100
AcDbSpline
 70
8
 71
3
 72
8
 73
4
 74
0
 40
0
 40
0
 40
0
 40
0
 40
1
 40
1
 40
1
 40
1
 10
246.327789
 20
-171.677471
 30
0.0
 10
247.457807
 20
-170.611800
 30
0.0
 10
248.022533
 20
-168.504447
 30
0.0
 10
248.022533
 20
-165.355411
 30
0.0
  0
LINE
  5
1ca
100
AcDbEntity
  8
0
 62
7
100
AcDbLine
 10
248.022533
 20
-165.355411
 30
0.0
 11
248.022533
 21
-127.088900
 31
0.0
  0
SPLINE
  5
1cb
100
AcDbEntity
  8
0
 62
7
100
AcDbSpline
 70
8
 71
3
 72
8
 73
4
 74
0
 40
0
 40
0
 40
0
 40
0
 40
1
 40
1
 40
1
 40
1
 10
248.022533
 20
-127.088900
 30
0.0
 10
248.022533
 20
-124.035256
 30
0.0
 10
247.489698
 20
-121.951609
 30
0.0
 10
246.423462
 20
-120.838242
 30
0.0
  0
SPLINE
  5
1cc
100
AcDbEntity
  8
0
 62
7
100
AcDbSpline
 70
8
 71
3
 72
8
 73
4
 74
0
 40
0
 40
0
 40
0
 40
0
 40
1
 40
1
 40
1
 40
1
 10
246.423462
 20
-120.838242
 30
0.0
 10
245.357227
 20
-119.725158
 30
0.0
 10
243.057680
 20
-119.168333
 30
0.0
 10
239.525104
 20
-119.168333
 30
0.0
  0
LINE
  5
1cd
100
AcDbEntity
  8
0
 62
7
100
AcDbLine
 10
239.525104
 20
-119.168333
 30
0.0
 11
239.525104
 21
-113.872151
 31
0.0
  0
LINE
  5
1ce
100
AcDbEntity
  8
0
 62
7
100
AcDbLine
 10
239.525104
 20
-113.872151
 30
0.0
 11
273.276907
 21
-113.872151
 31
0.0
  0
LINE
  5
1cf
100
AcDbEntity
  8
0
 62
7
100
AcDbLine
 10
273.276907
 20
-113.872151
 30
0.0
 11
273.276907
 21
-119.168333
 31
0.0
  0
SPLINE
  5
1d0
100
AcDbEntity
  8
0
 62
7
100
AcDbSpline
 70
8
 71
3
 72
8
 73
4
 74
0
 40
0
 40
0
 40
0
 40
0
 40
1
 40
1
 40
1
 40
1
 10
273.276907
 20
-119.168333
 30
0.0
 10
269.903504
 20
-119.168333
 30
0.0
 10
267.667458
 20
-119.716973
 30
0.0
 10
266.569613
 20
-120.814536
 30
0.0
  0
SPLINE
  5
1d1
100
AcDbEntity
  8
0
 62
7
100
AcDbSpline
 70
8
 71
3
 72
8
 73
4
 74
0
 40
0
 40
0
 40
0
 40
0
 40
1
 40
1
 40
1
 40
1
 10
266.569613
 20
-120.814536
 30
0.0
 10
265.471487
 20
-121.911816
 30
0.0
 10
264.922564
 20
-124.003364
 30
0.0
 10
264.922564
 20
-127.088900
 30
0.0
  0
LINE
  5
1d2
100
AcDbEntity
  8
0
 62
7
100
AcDbLine
 10
264.922564
 20
-127.088900
 30
0.0
 11
264.922564
 21
-141.593993
 31
0.0
  0
LINE
  5
1d3
100
AcDbEntity
  8
0
 62
7
100
AcDbLine
 10
264.922564
 20
-141.593993
 30
0.0
 11
291.513542
 21
-141.593993
 31
0.0
  0
LINE
  5
1d4
100
AcDbEntity
  8
0
 62
7
100
AcDbLine
 10
291.513542
 20
-141.593993
 30
0.0
 11
291.513542
 21
-127.088900
 31
0.0
  0
SPLINE
  5
1d5
100
AcDbEntity
  8
0
 62
7
100
AcDbSpline
 70
8
 71
3
 72
8
 73
4
 74
0
 40
0
 40
0
 40
0
 40
0
 40
1
 40
1
 40
1
 40
1
 10
291.513542
 20
-127.088900
 30
0.0
 10
291.513542
 20
-124.098756
 30
0.0
 10
290.996229
 20
-122.031196
 30
0.0
 10
289.961884
 20
-120.886220
 30
0.0
  0
SPLINE
  5
1d6
100
AcDbEntity
  8
0
 62
7
100
AcDbSpline
 70
8
 71
3
 72
8
 73
4
 74
0
 40
0
 40
0
 40
0
 40
0
 40
1
 40
1
 40
1
 40
1
 10
289.961884
 20
-120.886220
 30
0.0
 10
288.927540
 20
-119.740962
 30
0.0
 10
286.707862
 20
-119.168333
 30
0.0
 10
283.302287
 20
-119.168333
 30
0.0
  0
LINE
  5
1d7
100
AcDbEntity
  8
0
 62
7
100
AcDbLine
 10
283.302287
 20
-119.168333
 30
0.0
 11
283.302287
 21
-113.872151
 31
0.0
  0
LINE
  5
1d8
100
AcDbEntity
  8
0
 62
7
100
AcDbLine
 10
283.302287
 20
-113.872151
 30
0.0
 11
316.958698
 21
-113.872151
 31
0.0
  0
LINE
  5
1d9
100
AcDbEntity
  8
0
 62
7
100
AcDbLine
 10
316.958698
 20
-113.872151
 30
0.0
 11
316.958698
 21
-119.168333
 31
0.0
  0
SPLINE
  5
1da
100
AcDbEntity
  8
0
 62
7
100
AcDbSpline
 70
8
 71
3
 72
8
 73
4
 74
0
 40
0
 40
0
 40
0
 40
0
 40
1
 40
1
 40
1
 40
1
 10
316.958698
 20
-119.168333
 30
0.0
 10
313.521513
 20
-119.168333
 30
0.0
 10
311.238053
 20
-119.693267
 30
0.0
 10
310.108036
 20
-120.742851
 30
0.0
  0
SPLINE
  5
1db
100
AcDbEntity
  8
0
 62
7
100
AcDbSpline
 70
8
 71
3
 72
8
 73
4
 74
0
 40
0
 40
0
 40
0
 40
0
 40
1
 40
1
 40
1
 40
1
 10
310.108036
 20
-120.742851
 30
0.0
 10
308.978300
 20
-121.792718
 30
0.0
 10
308.413291
 20
-123.907973
 30
0.0
 10
308.413291
 20
-127.088900
 30
0.0
  0
LINE
  5
1dc
100
AcDbEntity
  8
0
 62
7
100
AcDbLine
 10
308.413291
 20
-127.088900
 30
0.0
 11
308.413291
 21
-165.355411
 31
0.0
  0
SPLINE
  5
1dd
100
AcDbEntity
  8
0
 62
7
100
AcDbSpline
 70
8
 71
3
 72
8
 73
4
 74
0
 40
0
 40
0
 40
0
 40
0
 40
1
 40
1
 40
1
 40
1
 10
308.413291
 20
-165.355411
 30
0.0
 10
308.413291
 20
-168.440947
 30
0.0
 10
308.954311
 20
-170.532496
 30
0.0
 10
310.036633
 20
-171.629776
 30
0.0
  0
SPLINE
  5
1de
100
AcDbEntity
  8
0
 62
7
100
AcDbSpline
 70
8
 71
3
 72
8
 73
4
 74
0
 40
0
 40
0
 40
0
 40
0
 40
1
 40
1
 40
1
 40
1
 10
310.036633
 20
-171.629776
 30
0.0
 10
311.118673
 20
-172.727338
 30
0.0
 10
313.426122
 20
-173.275978
 30
0.0
 10
316.958698
 20
-173.275978
 30
0.0
  0
LINE
  5
1df
100
AcDbEntity
  8
0
 62
7
100
AcDbLine
 10
316.958698
 20
-173.275978
 30
0.0
 11
316.958698
 21
-178.508096
 31
0.0
  0
LINE
  5
1e0
100
AcDbEntity
  8
0
 62
7
100
AcDbLine
 10
316.958698
 20
-178.508096
 30
0.0
 11
332.548653
 21
-178.508096
 31
0.0
  0
LINE
  5
1e1
100
AcDbEntity
  8
0
 62
7
100
AcDbLine
 10
332.548653
 20
-178.508096
 30
0.0
 11
329.970553
 21
-192.196438
 31
0.0
  0
LINE
  5
1e2
100
AcDbEntity
  8
0
 62
7
100
AcDbLine
 10
329.970553
 20
-192.196438
 30
0.0
 11
329.961522
 21
-192.196438
 31
0.0
  0
SPLINE
  5
1e3
100
AcDbEntity
  8
0
 62
7
100
AcDbSpline
 70
8
 71
3
 72
8
 73
4
 74
0
 40
0
 40
0
 40
0
 40
0
 40
1
 40
1
 40
1
 40
1
 10
329.961522
 20
-192.196438
 30
0.0
 10
332.040089
 20
-194.157036
 30
0.0
 10
333.337747
 20
-196.935231
 30
0.0
 10
333.337747
 20
-200.013993
 30
0.0
  0
SPLINE
  5
1e4
100
AcDbEntity
  8
0
 62
7
100
AcDbSpline
 70
8
 71
3
 72
8
 73
4
 74
0
 40
0
 40
0
 40
0
 40
0
 40
1
 40
1
 40
1
 40
1
 10
333.337747
 20
-200.013993
 30
0.0
 10
333.337747
 20
-205.946304
 30
0.0
 10
328.518802
 20
-210.762709
 30
0.0
 10
322.583104
 20
-210.762709
 30
0.0
  0
SPLINE
  5
1e5
100
AcDbEntity
  8
0
 62
7
100
AcDbSpline
 70
8
 71
3
 72
8
 73
4
 74
0
 40
0
 40
0
 40
0
 40
0
 40
1
 40
1
 40
1
 40
1
 10
322.583104
 20
-210.762709
 30
0.0
 10
316.647124
 20
-210.762709
 30
0.0
 10
311.828180
 20
-205.946304
 30
0.0
 10
311.828180
 20
-200.013993
 30
0.0
  0
SPLINE
  5
1e6
100
AcDbEntity
  8
0
 62
7
100
AcDbSpline
 70
8
 71
3
 72
8
 73
4
 74
0
 40
0
 40
0
 40
0
 40
0
 40
1
 40
1
 40
1
 40
1
 10
311.828180
 20
-200.013993
 30
0.0
 10
311.828180
 20
-196.935231
 30
0.0
 10
242.410827
 20
-196.935231
 30
0.0
 10
242.410827
 20
-200.013993
 30
0.0
  0
SPLINE
  5
1e7
100
AcDbEntity
  8
0
 62
7
100
AcDbSpline
 70
8
 71
3
 72
8
 73
4
 74
0
 40
0
 40
0
 40
0
 40
0
 40
1
 40
1
 40
1
 40
1
 10
242.410827
 20
-200.013993
 30
0.0
 10
242.410827
 20
-205.946304
 30
0.0
 10
237.591882
 20
-210.762709
 30
0.0
 10
231.655902
 20
-210.762709
 30
0.0
  0
SPLINE
  5
1e8
100
AcDbEntity
  8
0
 62
7
100
AcDbSpline
 70
8
 71
3
 72
8
 73
4
 74
0
 40
0
 40
0
 40
0
 40
0
 40
1
 40
1
 40
1
 40
1
 10
231.655902
 20
-210.762709
 30
0.0
 10
225.720204
 20
-210.762709
 30
0.0
 10
220.901260
 20
-205.946304
 30
0.0
 10
220.901260
 20
-200.013993
 30
0.0
  0
SPLINE
  5
1e9
100
AcDbEntity
  8
0
 62
7
100
AcDbSpline
 70
8
 71
3
 72
8
 73
4
 74
0
 40
0
 40
0
 40
0
 40
0
 40
1
 40
1
 40
1
 40
1
 10
220.901260
 20
-200.013993
 30
0.0
 10
220.901260
 20
-196.934949
 30
0.0
 10
222.199200
 20
-194.156753
 30
0.0
 10
224.277484
 20
-192.196438
 30
0.0
  0
LINE
  5
1ea
100
AcDbEntity
  8
0
 62
7
100
AcDbLine
 10
224.277484
 20
-192.196438
 30
0.0
 11
224.268453
 21
-192.196438
 31
0.0
  0
LINE
  5
1eb
100
AcDbEntity
  8
0
 62
7
100
AcDbLine
 10
224.268453
 20
-192.196438
 30
0.0
 11
221.690353
 21
-178.508096
 31
0.0
  0
LINE
  5
1ec
100
AcDbEntity
  8
0
 62
7
100
AcDbLine
 10
221.690353
 20
-178.508096
 30
0.0
 11
239.525104
 21
-178.508096
 31
0.0
  0
LINE
  5
1ed
100
AcDbEntity
  8
0
 62
7
100
AcDbLine
 10
239.525104
 20
-178.508096
 30
0.0
 11
239.525104
 21
-178.508096
 31
0.0
  0
LINE
  5
1ee
100
AcDbEntity
  8
0
 62
7
100
AcDbLine
 10
291.512978
 20
-147.558196
 30
0.0
 11
264.922000
 21
-147.558196
 31
0.0
  0
LINE
  5
1ef
100
AcDbEntity
  8
0
 62
7
100
AcDbLine
 10
264.922000
 20
-147.558196
 30
0.0
 11
264.922000
 21
-165.355411
 31
0.0
  0
SPLINE
  5
1f0
100
AcDbEntity
  8
0
 62
7
100
AcDbSpline
 70
8
 71
3
 72
8
 73
4
 74
0
 40
0
 40
0
 40
0
 40
0
 40
1
 40
1
 40
1
 40
1
 10
264.922000
 20
-165.355411
 30
0.0
 10
264.922000
 20
-168.377164
 30
0.0
 10
265.447216
 20
-170.452909
 30
0.0
 10
266.497364
 20
-171.582080
 30
0.0
  0
SPLINE
  5
1f1
100
AcDbEntity
  8
0
 62
7
100
AcDbSpline
 70
8
 71
3
 72
8
 73
4
 74
0
 40
0
 40
0
 40
0
 40
0
 40
1
 40
1
 40
1
 40
1
 10
266.497364
 20
-171.582080
 30
0.0
 10
267.547513
 20
-172.711251
 30
0.0
 10
269.807267
 20
-173.275978
 30
0.0
 10
273.276342
 20
-173.275978
 30
0.0
  0
LINE
  5
1f2
100
AcDbEntity
  8
0
 62
7
100
AcDbLine
 10
273.276342
 20
-173.275978
 30
0.0
 11
273.276342
 21
-178.508096
 31
0.0
  0
LINE
  5
1f3
100
AcDbEntity
  8
0
 62
7
100
AcDbLine
 10
273.276342
 20
-178.508096
 30
0.0
 11
283.301722
 21
-178.508096
 31
0.0
  0
LINE
  5
1f4
100
AcDbEntity
  8
0
 62
7
100
AcDbLine
 10
283.301722
 20
-178.508096
 30
0.0
 11
283.301722
 21
-173.275978
 31
0.0
  0
SPLINE
  5
1f5
100
AcDbEntity
  8
0
 62
7
100
AcDbSpline
 70
8
 71
3
 72
8
 73
4
 74
0
 40
0
 40
0
 40
0
 40
0
 40
1
 40
1
 40
1
 40
1
 10
283.301722
 20
-173.275978
 30
0.0
 10
286.643516
 20
-173.275978
 30
0.0
 10
288.847389
 20
-172.719153
 30
0.0
 10
289.913624
 20
-171.606069
 30
0.0
  0
SPLINE
  5
1f6
100
AcDbEntity
  8
0
 62
7
100
AcDbSpline
 70
8
 71
3
 72
8
 73
4
 74
0
 40
0
 40
0
 40
0
 40
0
 40
1
 40
1
 40
1
 40
1
 10
289.913624
 20
-171.606069
 30
0.0
 10
290.979860
 20
-170.492702
 30
0.0
 10
291.512978
 20
-168.409056
 30
0.0
 10
291.512978
 20
-165.355411
 30
0.0
  0
LINE
  5
1f7
100
AcDbEntity
  8
0
 62
7
100
AcDbLine
 10
291.512978
 20
-165.355411
 30
0.0
 11
291.512978
 21
-147.558196
 31
0.0
  0
LINE
  5
1f8
100
AcDbEntity
  8
0
 62
7
100
AcDbLine
 10
291.512978
 20
-147.558196
 30
0.0
 11
291.512978
 21
-147.558196
 31
0.0
  0
LINE
  5
1f9
100
AcDbEntity
  8
0
 62
1
100
AcDbLine
 10
221.690353
 20
-178.508096
 30
0.0
 11
332.548653
 21
-178.508096
 31
0.0
  0
LINE
  5
1fa
100
AcDbEntity
  8
0
 62
1
100
AcDbLine
 10
332.548653
 20
-178.508096
 30
0.0
 11
221.690353
 21
-178.508096
 31
0.0
  0
LINE
  5
1fb
100
AcDbEntity
  8
0
 62
1
100
AcDbLine
 10
221.690353
 20
-178.508096
 30
0.0
 11
221.690353
 21
-178.508096
 31
0.0
  0
LINE
  5
1fc
100
AcDbEntity
  8
0
 62
7
100
AcDbLine
 10
135.415867
 20
-198.883129
 30
0.0
 11
128.851942
 21
-198.883129
 31
0.0
  0
SPLINE
  5
1fd
100
AcDbEntity
  8
0
 62
7
100
AcDbSpline
 70
8
 71
3
 72
8
 73
4
 74
0
 40
0
 40
0
 40
0
 40
0
 40
1
 40
1
 40
1
 40
1
 10
128.851942
 20
-198.883129
 30
0.0
 10
127.611011
 20
-205.611871
 30
0.0
 10
121.715671
 20
-210.711062
 30
0.0
 10
114.616936
 20
-210.713602
 30
0.0
  0
SPLINE
  5
1fe
100
AcDbEntity
  8
0
 62
7
100
AcDbSpline
 70
8
 71
3
 72
8
 73
4
 74
0
 40
0
 40
0
 40
0
 40
0
 40
1
 40
1
 40
1
 40
1
 10
114.616936
 20
-210.713602
 30
0.0
 10
107.521022
 20
-210.711062
 30
0.0
 10
101.625682
 20
-205.611871
 30
0.0
 10
100.383340
 20
-198.883129
 30
0.0
  0
LINE
  5
1ff
100
AcDbEntity
  8
0
 62
7
100
AcDbLine
 10
100.383340
 20
-198.883129
 30
0.0
 11
93.820827
 21
-198.883129
 31
0.0
  0
SPLINE
  5
200
100
AcDbEntity
  8
0
 62
7
100
AcDbSpline
 70
8
 71
3
 72
8
 73
4
 74
0
 40
0
 40
0
 40
0
 40
0
 40
1
 40
1
 40
1
 40
1
 10
93.820827
 20
-198.883129
 30
0.0
 10
92.578484
 20
-205.611871
 30
0.0
 10
86.683144
 20
-210.711062
 30
0.0
 10
79.585820
 20
-210.713602
 30
0.0
  0
LINE
  5
201
100
AcDbEntity
  8
0
 62
7
100
AcDbLine
 10
79.585820
 20
-210.713602
 30
0.0
 11
79.585256
 21
-210.713602
 31
0.0
  0
LINE
  5
202
100
AcDbEntity
  8
0
 62
7
100
AcDbLine
 10
79.585256
 20
-210.713602
 30
0.0
 11
79.581304
 21
-210.713602
 31
0.0
  0
SPLINE
  5
203
100
AcDbEntity
  8
0
 62
7
100
AcDbSpline
 70
8
 71
3
 72
8
 73
4
 74
0
 40
0
 40
0
 40
0
 40
0
 40
1
 40
1
 40
1
 40
1
 10
79.581304
 20
-210.713602
 30
0.0
 10
72.488778
 20
-210.711062
 30
0.0
 10
66.593438
 20
-205.611871
 30
0.0
 10
65.351096
 20
-198.883129
 30
0.0
  0
LINE
  5
204
100
AcDbEntity
  8
0
 62
7
100
AcDbLine
 10
65.351096
 20
-198.883129
 30
0.0
 11
60.442687
 21
-198.883129
 31
0.0
  0
LINE
  5
205
100
AcDbEntity
  8
0
 62
7
100
AcDbLine
 10
60.442687
 20
-198.883129
 30
0.0
 11
60.442687
 21
-205.196158
 31
0.0
  0
SPLINE
  5
206
100
AcDbEntity
  8
0
 62
7
100
AcDbSpline
 70
8
 71
3
 72
8
 73
4
 74
0
 40
0
 40
0
 40
0
 40
0
 40
1
 40
1
 40
1
 40
1
 10
60.442687
 20
-205.196158
 30
0.0
 10
60.442687
 20
-205.909333
 30
0.0
 10
59.864696
 20
-206.485631
 30
0.0
 10
59.151238
 20
-206.486760
 30
0.0
  0
LINE
  5
207
100
AcDbEntity
  8
0
 62
7
100
AcDbLine
 10
59.151238
 20
-206.486760
 30
0.0
 11
46.115393
 21
-206.486760
 31
0.0
  0
SPLINE
  5
208
100
AcDbEntity
  8
0
 62
7
100
AcDbSpline
 70
8
 71
3
 72
8
 73
4
 74
0
 40
0
 40
0
 40
0
 40
0
 40
1
 40
1
 40
1
 40
1
 10
46.115393
 20
-206.486760
 30
0.0
 10
45.401936
 20
-206.486760
 30
0.0
 10
44.823944
 20
-205.909333
 30
0.0
 10
44.823944
 20
-205.196158
 30
0.0
  0
LINE
  5
209
100
AcDbEntity
  8
0
 62
7
100
AcDbLine
 10
44.823944
 20
-205.196158
 30
0.0
 11
44.823944
 21
-199.739673
 31
0.0
  0
SPLINE
  5
20a
100
AcDbEntity
  8
0
 62
7
100
AcDbSpline
 70
8
 71
3
 72
8
 73
4
 74
0
 40
0
 40
0
 40
0
 40
0
 40
1
 40
1
 40
1
 40
1
 10
44.823944
 20
-199.739673
 30
0.0
 10
44.823944
 20
-199.739673
 30
0.0
 10
42.383004
 20
-199.656136
 30
0.0
 10
42.383004
 20
-199.710604
 30
0.0
  0
SPLINE
  5
20b
100
AcDbEntity
  8
0
 62
7
100
AcDbSpline
 70
8
 71
3
 72
8
 73
4
 74
0
 40
0
 40
0
 40
0
 40
0
 40
1
 40
1
 40
1
 40
1
 10
42.383004
 20
-199.710604
 30
0.0
 10
42.302007
 20
-205.408671
 30
0.0
 10
37.979773
 20
-210.074933
 30
0.0
 10
32.429873
 20
-210.713602
 30
0.0
  0
LINE
  5
20c
100
AcDbEntity
  8
0
 62
7
100
AcDbLine
 10
32.429873
 20
-210.713602
 30
0.0
 11
29.830889
 21
-210.713602
 31
0.0
  0
SPLINE
  5
20d
100
AcDbEntity
  8
0
 62
7
100
AcDbSpline
 70
8
 71
3
 72
8
 73
4
 74
0
 40
0
 40
0
 40
0
 40
0
 40
1
 40
1
 40
1
 40
1
 10
29.830889
 20
-210.713602
 30
0.0
 10
24.230471
 20
-210.068160
 30
0.0
 10
19.878887
 20
-205.319489
 30
0.0
 10
19.878887
 20
-199.548327
 30
0.0
  0
SPLINE
  5
20e
100
AcDbEntity
  8
0
 62
7
100
AcDbSpline
 70
8
 71
3
 72
8
 73
4
 74
0
 40
0
 40
0
 40
0
 40
0
 40
1
 40
1
 40
1
 40
1
 10
19.878887
 20
-199.548327
 30
0.0
 10
19.878887
 20
-199.323960
 30
0.0
 10
19.900336
 20
-199.103544
 30
0.0
 10
19.913600
 20
-198.883129
 30
0.0
  0
LINE
  5
20f
100
AcDbEntity
  8
0
 62
7
100
AcDbLine
 10
19.913600
 20
-198.883129
 30
0.0
 11
1.358336
 21
-198.883129
 31
0.0
  0
LINE
  5
210
100
AcDbEntity
  8
0
 62
7
100
AcDbLine
 10
1.358336
 20
-198.883129
 30
0.0
 11
1.358336
 21
-189.311562
 31
0.0
  0
LINE
  5
211
100
AcDbEntity
  8
0
 62
7
100
AcDbLine
 10
1.358336
 20
-189.311562
 30
0.0
 11
13.263316
 21
-189.311562
 31
0.0
  0
LINE
  5
212
100
AcDbEntity
  8
0
 62
7
100
AcDbLine
 10
13.263316
 20
-189.311562
 30
0.0
 11
13.263316
 21
-178.810356
 31
0.0
  0
LINE
  5
213
100
AcDbEntity
  8
0
 62
7
100
AcDbLine
 10
13.263316
 20
-178.810356
 30
0.0
 11
31.267118
 21
-178.810356
 31
0.0
  0
LINE
  5
214
100
AcDbEntity
  8
0
 62
7
100
AcDbLine
 10
31.267118
 20
-178.810356
 30
0.0
 11
31.272480
 21
-174.679187
 31
0.0
  0
SPLINE
  5
215
100
AcDbEntity
  8
0
 62
7
100
AcDbSpline
 70
8
 71
3
 72
8
 73
4
 74
0
 40
0
 40
0
 40
0
 40
0
 40
1
 40
1
 40
1
 40
1
 10
31.272480
 20
-174.679187
 30
0.0
 10
28.963338
 20
-170.825442
 30
0.0
 10
27.633224
 20
-166.318636
 30
0.0
 10
27.633224
 20
-161.500820
 30
0.0
  0
SPLINE
  5
216
100
AcDbEntity
  8
0
 62
7
100
AcDbSpline
 70
8
 71
3
 72
8
 73
4
 74
0
 40
0
 40
0
 40
0
 40
0
 40
1
 40
1
 40
1
 40
1
 10
27.633224
 20
-161.500820
 30
0.0
 10
27.633224
 20
-156.648573
 30
0.0
 10
28.985916
 20
-152.112416
 30
0.0
 10
31.326949
 20
-148.240327
 30
0.0
  0
LINE
  5
217
100
AcDbEntity
  8
0
 62
7
100
AcDbLine
 10
31.326949
 20
-148.240327
 30
0.0
 11
31.333722
 21
-144.822333
 31
0.0
  0
LINE
  5
218
100
AcDbEntity
  8
0
 62
7
100
AcDbLine
 10
31.333722
 20
-144.822333
 30
0.0
 11
31.744356
 21
-144.145000
 31
0.0
  0
LINE
  5
219
100
AcDbEntity
  8
0
 62
7
100
AcDbLine
 10
31.744356
 20
-144.145000
 30
0.0
 11
40.594562
 21
-144.158264
 31
0.0
  0
LINE
  5
21a
100
AcDbEntity
  8
0
 62
7
100
AcDbLine
 10
40.594562
 20
-144.158264
 30
0.0
 11
40.594562
 21
-117.383560
 31
0.0
  0
LINE
  5
21b
100
AcDbEntity
  8
0
 62
7
100
AcDbLine
 10
40.594562
 20
-117.383560
 30
0.0
 11
53.934924
 21
-117.383560
 31
0.0
  0
LINE
  5
21c
100
AcDbEntity
  8
0
 62
7
100
AcDbLine
 10
53.934924
 20
-117.383560
 30
0.0
 11
53.934924
 21
-144.265791
 31
0.0
  0
LINE
  5
21d
100
AcDbEntity
  8
0
 62
7
100
AcDbLine
 10
53.934924
 20
-144.265791
 30
0.0
 11
74.298387
 21
-144.265791
 31
0.0
  0
LINE
  5
21e
100
AcDbEntity
  8
0
 62
7
100
AcDbLine
 10
74.298387
 20
-144.265791
 30
0.0
 11
74.162920
 21
-131.746131
 31
0.0
  0
SPLINE
  5
21f
100
AcDbEntity
  8
0
 62
7
100
AcDbSpline
 70
8
 71
3
 72
8
 73
4
 74
0
 40
0
 40
0
 40
0
 40
0
 40
1
 40
1
 40
1
 40
1
 10
74.162920
 20
-131.746131
 30
0.0
 10
76.927851
 20
-124.592644
 30
0.0
 10
89.537258
 20
-124.429238
 30
0.0
 10
91.976787
 20
-131.746131
 30
0.0
  0
LINE
  5
220
100
AcDbEntity
  8
0
 62
7
100
AcDbLine
 10
91.976787
 20
-131.746131
 30
0.0
 11
92.112253
 21
-144.265791
 31
0.0
  0
LINE
  5
221
100
AcDbEntity
  8
0
 62
7
100
AcDbLine
 10
92.112253
 20
-144.265791
 30
0.0
 11
103.289382
 21
-144.265791
 31
0.0
  0
SPLINE
  5
222
100
AcDbEntity
  8
0
 62
7
100
AcDbSpline
 70
8
 71
3
 72
8
 73
4
 74
0
 40
0
 40
0
 40
0
 40
0
 40
1
 40
1
 40
1
 40
1
 10
103.289382
 20
-144.265791
 30
0.0
 10
103.289382
 20
-144.248576
 30
0.0
 10
103.284020
 20
-144.229949
 30
0.0
 10
103.284020
 20
-144.211322
 30
0.0
  0
LINE
  5
223
100
AcDbEntity
  8
0
 62
7
100
AcDbLine
 10
103.284020
 20
-144.211322
 30
0.0
 11
103.284020
 21
-134.890651
 31
0.0
  0
SPLINE
  5
224
100
AcDbEntity
  8
0
 62
7
100
AcDbSpline
 70
8
 71
3
 72
8
 73
4
 74
0
 40
0
 40
0
 40
0
 40
0
 40
1
 40
1
 40
1
 40
1
 10
103.284020
 20
-134.890651
 30
0.0
 10
103.284020
 20
-133.872111
 30
0.0
 10
104.110367
 20
-133.047458
 30
0.0
 10
105.129471
 20
-133.047458
 30
0.0
  0
LINE
  5
225
100
AcDbEntity
  8
0
 62
7
100
AcDbLine
 10
105.129471
 20
-133.047458
 30
0.0
 11
112.340249
 21
-133.047458
 31
0.0
  0
SPLINE
  5
226
100
AcDbEntity
  8
0
 62
7
100
AcDbSpline
 70
8
 71
3
 72
8
 73
4
 74
0
 40
0
 40
0
 40
0
 40
0
 40
1
 40
1
 40
1
 40
1
 10
112.340249
 20
-133.047458
 30
0.0
 10
113.359353
 20
-133.047458
 30
0.0
 10
114.184571
 20
-133.872111
 30
0.0
 10
114.184571
 20
-134.890651
 30
0.0
  0
LINE
  5
227
100
AcDbEntity
  8
0
 62
7
100
AcDbLine
 10
114.184571
 20
-134.890651
 30
0.0
 11
114.184571
 21
-144.211322
 31
0.0
  0
SPLINE
  5
228
100
AcDbEntity
  8
0
 62
7
100
AcDbSpline
 70
8
 71
3
 72
8
 73
4
 74
0
 40
0
 40
0
 40
0
 40
0
 40
1
 40
1
 40
1
 40
1
 10
114.184571
 20
-144.211322
 30
0.0
 10
114.184571
 20
-144.229949
 30
0.0
 10
114.179209
 20
-144.248576
 30
0.0
 10
114.179209
 20
-144.265791
 30
0.0
  0
LINE
  5
229
100
AcDbEntity
  8
0
 62
7
100
AcDbLine
 10
114.179209
 20
-144.265791
 30
0.0
 11
129.964180
 21
-144.265791
 31
0.0
  0
LINE
  5
22a
100
AcDbEntity
  8
0
 62
7
100
AcDbLine
 10
129.964180
 20
-144.265791
 30
0.0
 11
129.964180
 21
-126.381369
 31
0.0
  0
LINE
  5
22b
100
AcDbEntity
  8
0
 62
7
100
AcDbLine
 10
129.964180
 20
-126.381369
 30
0.0
 11
187.882107
 21
-126.381369
 31
0.0
  0
LINE
  5
22c
100
AcDbEntity
  8
0
 62
7
100
AcDbLine
 10
187.882107
 20
-126.381369
 30
0.0
 11
187.882107
 21
-133.318391
 31
0.0
  0
LINE
  5
22d
100
AcDbEntity
  8
0
 62
7
100
AcDbLine
 10
187.882107
 20
-133.318391
 30
0.0
 11
176.819278
 21
-133.318391
 31
0.0
  0
LINE
  5
22e
100
AcDbEntity
  8
0
 62
7
100
AcDbLine
 10
176.819278
 20
-133.318391
 30
0.0
 11
176.819278
 21
-148.601571
 31
0.0
  0
LINE
  5
22f
100
AcDbEntity
  8
0
 62
7
100
AcDbLine
 10
176.819278
 20
-148.601571
 30
0.0
 11
201.440062
 21
-148.601571
 31
0.0
  0
LINE
  5
230
100
AcDbEntity
  8
0
 62
7
100
AcDbLine
 10
201.440062
 20
-148.601571
 30
0.0
 11
201.440062
 21
-178.760120
 31
0.0
  0
LINE
  5
231
100
AcDbEntity
  8
0
 62
7
100
AcDbLine
 10
201.440062
 20
-178.760120
 30
0.0
 11
213.403744
 21
-178.760120
 31
0.0
  0
LINE
  5
232
100
AcDbEntity
  8
0
 62
7
100
AcDbLine
 10
213.403744
 20
-178.760120
 30
0.0
 11
213.403744
 21
-198.883129
 31
0.0
  0
LINE
  5
233
100
AcDbEntity
  8
0
 62
7
100
AcDbLine
 10
213.403744
 20
-198.883129
 30
0.0
 11
163.884469
 21
-198.883129
 31
0.0
  0
SPLINE
  5
234
100
AcDbEntity
  8
0
 62
7
100
AcDbSpline
 70
8
 71
3
 72
8
 73
4
 74
0
 40
0
 40
0
 40
0
 40
0
 40
1
 40
1
 40
1
 40
1
 10
163.884469
 20
-198.883129
 30
0.0
 10
162.643538
 20
-205.611871
 30
0.0
 10
156.747916
 20
-210.711062
 30
0.0
 10
149.650873
 20
-210.713602
 30
0.0
  0
SPLINE
  5
235
100
AcDbEntity
  8
0
 62
7
100
AcDbSpline
 70
8
 71
3
 72
8
 73
4
 74
0
 40
0
 40
0
 40
0
 40
0
 40
1
 40
1
 40
1
 40
1
 10
149.650873
 20
-210.713602
 30
0.0
 10
142.553549
 20
-210.711062
 30
0.0
 10
136.658209
 20
-205.611871
 30
0.0
 10
135.415867
 20
-198.883129
 30
0.0
  0
LINE
  5
236
100
AcDbEntity
  8
0
 62
7
100
AcDbLine
 10
135.415867
 20
-198.883129
 30
0.0
 11
135.415867
 21
-198.883129
 31
0.0
  0
LINE
  5
237
100
AcDbEntity
  8
0
 62
7
100
AcDbLine
 10
135.415867
 20
-198.883129
 30
0.0
 11
135.415867
 21
-198.883129
 31
0.0
  0
SPLINE
  5
238
100
AcDbEntity
  8
0
 62
5
100
AcDbSpline
 70
8
 71
3
 72
8
 73
4
 74
0
 40
0
 40
0
 40
0
 40
0
 40
1
 40
1
 40
1
 40
1
 10
43.920551
 20
-195.125058
 30
0.0
 10
42.088082
 20
-189.829440
 30
0.0
 10
37.053802
 20
-186.026213
 30
0.0
 10
31.130240
 20
-186.026213
 30
0.0
  0
SPLINE
  5
239
100
AcDbEntity
  8
0
 62
5
100
AcDbSpline
 70
8
 71
3
 72
8
 73
4
 74
0
 40
0
 40
0
 40
0
 40
0
 40
1
 40
1
 40
1
 40
1
 10
31.130240
 20
-186.026213
 30
0.0
 10
24.694162
 20
-186.026213
 30
0.0
 10
19.307669
 20
-190.518627
 30
0.0
 10
17.937762
 20
-196.536733
 30
0.0
  0
LINE
  5
23a
100
AcDbEntity
  8
0
 62
5
100
AcDbLine
 10
17.937762
 20
-196.536733
 30
0.0
 11
20.248316
 21
-196.674740
 31
0.0
  0
SPLINE
  5
23b
100
AcDbEntity
  8
0
 62
5
100
AcDbSpline
 70
8
 71
3
 72
8
 73
4
 74
0
 40
0
 40
0
 40
0
 40
0
 40
1
 40
1
 40
1
 40
1
 10
20.248316
 20
-196.674740
 30
0.0
 10
21.520009
 20
-191.855796
 30
0.0
 10
25.909976
 20
-188.302336
 30
0.0
 10
31.130240
 20
-188.302336
 30
0.0
  0
SPLINE
  5
23c
100
AcDbEntity
  8
0
 62
5
100
AcDbSpline
 70
8
 71
3
 72
8
 73
4
 74
0
 40
0
 40
0
 40
0
 40
0
 40
1
 40
1
 40
1
 40
1
 10
31.130240
 20
-188.302336
 30
0.0
 10
35.807509
 20
-188.302336
 30
0.0
 10
39.817322
 20
-191.153344
 30
0.0
 10
41.515453
 20
-195.210007
 30
0.0
  0
LINE
  5
23d
100
AcDbEntity
  8
0
 62
5
100
AcDbLine
 10
41.515453
 20
-195.210007
 30
0.0
 11
43.920551
 21
-195.125058
 31
0.0
  0
LINE
  5
23e
100
AcDbEntity
  8
0
 62
5
100
AcDbLine
 10
43.920551
 20
-195.125058
 30
0.0
 11
43.920551
 21
-195.125058
 31
0.0
  0
SPLINE
  5
23f
100
AcDbEntity
  8
0
 62
5
100
AcDbSpline
 70
8
 71
3
 72
8
 73
4
 74
0
 40
0
 40
0
 40
0
 40
0
 40
1
 40
1
 40
1
 40
1
 10
164.100933
 20
-195.324307
 30
0.0
 10
163.626800
 20
-187.759058
 30
0.0
 10
157.339171
 20
-181.771713
 30
0.0
 10
149.650027
 20
-181.771713
 30
0.0
  0
SPLINE
  5
240
100
AcDbEntity
  8
0
 62
5
100
AcDbSpline
 70
8
 71
3
 72
8
 73
4
 74
0
 40
0
 40
0
 40
0
 40
0
 40
1
 40
1
 40
1
 40
1
 10
149.650027
 20
-181.771713
 30
0.0
 10
143.963249
 20
-181.771713
 30
0.0
 10
139.044398
 20
-185.047467
 30
0.0
 10
136.675424
 20
-189.813353
 30
0.0
  0
LINE
  5
241
100
AcDbEntity
  8
0
 62
5
100
AcDbLine
 10
136.675424
 20
-189.813353
 30
0.0
 11
134.210778
 21
-189.723042
 31
0.0
  0
SPLINE
  5
242
100
AcDbEntity
  8
0
 62
5
100
AcDbSpline
 70
8
 71
3
 72
8
 73
4
 74
0
 40
0
 40
0
 40
0
 40
0
 40
1
 40
1
 40
1
 40
1
 10
134.210778
 20
-189.723042
 30
0.0
 10
136.755011
 20
-183.713120
 30
0.0
 10
142.709053
 20
-179.495591
 30
0.0
 10
149.650027
 20
-179.495591
 30
0.0
  0
SPLINE
  5
243
100
AcDbEntity
  8
0
 62
5
100
AcDbSpline
 70
8
 71
3
 72
8
 73
4
 74
0
 40
0
 40
0
 40
0
 40
0
 40
1
 40
1
 40
1
 40
1
 10
149.650027
 20
-179.495591
 30
0.0
 10
158.596189
 20
-179.495591
 30
0.0
 10
165.904051
 20
-186.498936
 30
0.0
 10
166.383829
 20
-195.321767
 30
0.0
  0
LINE
  5
244
100
AcDbEntity
  8
0
 62
5
100
AcDbLine
 10
166.383829
 20
-195.321767
 30
0.0
 11
164.100933
 21
-195.324307
 31
0.0
  0
LINE
  5
245
100
AcDbEntity
  8
0
 62
5
100
AcDbLine
 10
164.100933
 20
-195.324307
 30
0.0
 11
164.100933
 21
-195.324307
 31
0.0
  0
LINE
  5
246
100
AcDbEntity
  8
0
 62
5
100
AcDbLine
 10
65.260502
 20
-187.546827
 30
0.0
 11
62.855687
 21
-187.546827
 31
0.0
  0
LINE
  5
247
100
AcDbEntity
  8
0
 62
5
100
AcDbLine
 10
62.855687
 20
-187.546827
 30
0.0
 11
62.855687
 21
-179.712056
 31
0.0
  0
LINE
  5
248
100
AcDbEntity
  8
0
 62
5
100
AcDbLine
 10
62.855687
 20
-179.712056
 30
0.0
 11
53.785911
 21
-179.712056
 31
0.0
  0
LINE
  5
249
100
AcDbEntity
  8
0
 62
5
100
AcDbLine
 10
53.785911
 20
-179.712056
 30
0.0
 11
53.785911
 21
-182.029100
 31
0.0
  0
LINE
  5
24a
100
AcDbEntity
  8
0
 62
5
100
AcDbLine
 10
53.785911
 20
-182.029100
 30
0.0
 11
60.578153
 21
-182.029100
 31
0.0
  0
LINE
  5
24b
100
AcDbEntity
  8
0
 62
5
100
AcDbLine
 10
60.578153
 20
-182.029100
 30
0.0
 11
60.578153
 21
-189.874596
 31
0.0
  0
LINE
  5
24c
100
AcDbEntity
  8
0
 62
5
100
AcDbLine
 10
60.578153
 20
-189.874596
 30
0.0
 11
66.616016
 21
-189.801500
 31
0.0
  0
SPLINE
  5
24d
100
AcDbEntity
  8
0
 62
5
100
AcDbSpline
 70
8
 71
3
 72
8
 73
4
 74
0
 40
0
 40
0
 40
0
 40
0
 40
1
 40
1
 40
1
 40
1
 10
66.616016
 20
-189.801500
 30
0.0
 10
68.987529
 20
-185.040976
 30
0.0
 10
73.903840
 20
-181.771713
 30
0.0
 10
79.585256
 20
-181.771713
 30
0.0
  0
SPLINE
  5
24e
100
AcDbEntity
  8
0
 62
5
100
AcDbSpline
 70
8
 71
3
 72
8
 73
4
 74
0
 40
0
 40
0
 40
0
 40
0
 40
1
 40
1
 40
1
 40
1
 10
79.585256
 20
-181.771713
 30
0.0
 10
85.275984
 20
-181.771713
 30
0.0
 10
90.198787
 20
-185.051700
 30
0.0
 10
92.566631
 20
-189.824078
 30
0.0
  0
LINE
  5
24f
100
AcDbEntity
  8
0
 62
5
100
AcDbLine
 10
92.566631
 20
-189.824078
 30
0.0
 11
95.097882
 21
-189.895762
 31
0.0
  0
SPLINE
  5
250
100
AcDbEntity
  8
0
 62
5
100
AcDbSpline
 70
8
 71
3
 72
8
 73
4
 74
0
 40
0
 40
0
 40
0
 40
0
 40
1
 40
1
 40
1
 40
1
 10
95.097882
 20
-189.895762
 30
0.0
 10
92.595982
 20
-183.794118
 30
0.0
 10
86.592833
 20
-179.495591
 30
0.0
 10
79.585256
 20
-179.495591
 30
0.0
  0
SPLINE
  5
251
100
AcDbEntity
  8
0
 62
5
100
AcDbSpline
 70
8
 71
3
 72
8
 73
4
 74
0
 40
0
 40
0
 40
0
 40
0
 40
1
 40
1
 40
1
 40
1
 10
79.585256
 20
-179.495591
 30
0.0
 10
73.517196
 20
-179.495591
 30
0.0
 10
68.202387
 20
-182.719698
 30
0.0
 10
65.260502
 20
-187.546827
 30
0.0
  0
LINE
  5
252
100
AcDbEntity
  8
0
 62
5
100
AcDbLine
 10
65.260502
 20
-187.546827
 30
0.0
 11
65.260502
 21
-187.546827
 31
0.0
  0
LINE
  5
253
100
AcDbEntity
  8
0
 62
5
100
AcDbLine
 10
65.260502
 20
-187.546827
 30
0.0
 11
65.260502
 21
-187.546827
 31
0.0
  0
SPLINE
  5
254
100
AcDbEntity
  8
0
 62
5
100
AcDbSpline
 70
8
 71
3
 72
8
 73
4
 74
0
 40
0
 40
0
 40
0
 40
0
 40
1
 40
1
 40
1
 40
1
 10
101.604516
 20
-189.889271
 30
0.0
 10
103.958813
 20
-185.082180
 30
0.0
 10
108.901653
 20
-181.771713
 30
0.0
 10
114.617782
 20
-181.771713
 30
0.0
  0
SPLINE
  5
255
100
AcDbEntity
  8
0
 62
5
100
AcDbSpline
 70
8
 71
3
 72
8
 73
4
 74
0
 40
0
 40
0
 40
0
 40
0
 40
1
 40
1
 40
1
 40
1
 10
114.617782
 20
-181.771713
 30
0.0
 10
120.311051
 20
-181.771713
 30
0.0
 10
125.236676
 20
-185.055651
 30
0.0
 10
127.603109
 20
-189.830851
 30
0.0
  0
LINE
  5
256
100
AcDbEntity
  8
0
 62
5
100
AcDbLine
 10
127.603109
 20
-189.830851
 30
0.0
 11
130.093156
 21
-189.806862
 31
0.0
  0
SPLINE
  5
257
100
AcDbEntity
  8
0
 62
5
100
AcDbSpline
 70
8
 71
3
 72
8
 73
4
 74
0
 40
0
 40
0
 40
0
 40
0
 40
1
 40
1
 40
1
 40
1
 10
130.093156
 20
-189.806862
 30
0.0
 10
127.569807
 20
-183.751502
 30
0.0
 10
121.590647
 20
-179.495591
 30
0.0
 10
114.617782
 20
-179.495591
 30
0.0
  0
SPLINE
  5
258
100
AcDbEntity
  8
0
 62
5
100
AcDbSpline
 70
8
 71
3
 72
8
 73
4
 74
0
 40
0
 40
0
 40
0
 40
0
 40
1
 40
1
 40
1
 40
1
 10
114.617782
 20
-179.495591
 30
0.0
 10
107.676527
 20
-179.495591
 30
0.0
 10
101.721356
 20
-183.713120
 30
0.0
 10
99.178251
 20
-189.723042
 30
0.0
  0
LINE
  5
259
100
AcDbEntity
  8
0
 62
5
100
AcDbLine
 10
99.178251
 20
-189.723042
 30
0.0
 11
101.604516
 21
-189.889271
 31
0.0
  0
LINE
  5
25a
100
AcDbEntity
  8
0
 62
5
100
AcDbLine
 10
101.604516
 20
-189.889271
 30
0.0
 11
101.604516
 21
-189.889271
 31
0.0
  0
LINE
  5
25b
100
AcDbEntity
  8
0
 62
5
100
AcDbLine
 10
148.620480
 20
-133.427329
 30
0.0
 11
167.491833
 21
-133.427329
 31
0.0
  0
LINE
  5
25c
100
AcDbEntity
  8
0
 62
5
100
AcDbLine
 10
167.491833
 20
-133.427329
 30
0.0
 11
167.491833
 21
-156.948858
 31
0.0
  0
LINE
  5
25d
100
AcDbEntity
  8
0
 62
5
100
AcDbLine
 10
167.491833
 20
-156.948858
 30
0.0
 11
148.620480
 21
-156.948858
 31
0.0
  0
LINE
  5
25e
100
AcDbEntity
  8
0
 62
5
100
AcDbLine
 10
148.620480
 20
-156.948858
 30
0.0
 11
148.620480
 21
-133.427329
 31
0.0
  0
LINE
  5
25f
100
AcDbEntity
  8
0
 62
7
100
AcDbLine
 10
59.263280
 20
-129.871329
 30
0.0
 11
68.338418
 21
-129.871329
 31
0.0
  0
LINE
  5
260
100
AcDbEntity
  8
0
 62
7
100
AcDbLine
 10
68.338418
 20
-129.871329
 30
0.0
 11
70.129400
 21
-124.620584
 31
0.0
  0
SPLINE
  5
261
100
AcDbEntity
  8
0
 62
7
100
AcDbSpline
 70
8
 71
3
 72
8
 73
4
 74
0
 40
0
 40
0
 40
0
 40
0
 40
1
 40
1
 40
1
 40
1
 10
70.129400
 20
-124.620584
 30
0.0
 10
70.965060
 20
-124.977878
 30
0.0
 10
71.919253
 20
-125.216920
 30
0.0
 10
72.754913
 20
-125.216920
 30
0.0
  0
SPLINE
  5
262
100
AcDbEntity
  8
0
 62
7
100
AcDbSpline
 70
8
 71
3
 72
8
 73
4
 74
0
 40
0
 40
0
 40
0
 40
0
 40
1
 40
1
 40
1
 40
1
 10
72.754913
 20
-125.216920
 30
0.0
 10
74.068940
 20
-125.216920
 30
0.0
 10
75.381838
 20
-124.738836
 30
0.0
 10
76.457951
 20
-124.023120
 30
0.0
  0
SPLINE
  5
263
100
AcDbEntity
  8
0
 62
7
100
AcDbSpline
 70
8
 71
3
 72
8
 73
4
 74
0
 40
0
 40
0
 40
0
 40
0
 40
1
 40
1
 40
1
 40
1
 10
76.457951
 20
-124.023120
 30
0.0
 10
78.247804
 20
-122.709658
 30
0.0
 10
79.800873
 20
-121.158847
 30
0.0
 10
81.113771
 20
-119.249049
 30
0.0
  0
SPLINE
  5
264
100
AcDbEntity
  8
0
 62
7
100
AcDbSpline
 70
8
 71
3
 72
8
 73
4
 74
0
 40
0
 40
0
 40
0
 40
0
 40
1
 40
1
 40
1
 40
1
 10
81.113771
 20
-119.249049
 30
0.0
 10
82.427798
 20
-117.459196
 30
0.0
 10
83.264869
 20
-115.311767
 30
0.0
 10
83.383120
 20
-113.043829
 30
0.0
  0
SPLINE
  5
265
100
AcDbEntity
  8
0
 62
7
100
AcDbSpline
 70
8
 71
3
 72
8
 73
4
 74
0
 40
0
 40
0
 40
0
 40
0
 40
1
 40
1
 40
1
 40
1
 10
83.383120
 20
-113.043829
 30
0.0
 10
85.054722
 20
-112.685124
 30
0.0
 10
86.606662
 20
-111.612398
 30
0.0
 10
87.563113
 20
-110.059893
 30
0.0
  0
SPLINE
  5
266
100
AcDbEntity
  8
0
 62
7
100
AcDbSpline
 70
8
 71
3
 72
8
 73
4
 74
0
 40
0
 40
0
 40
0
 40
0
 40
1
 40
1
 40
1
 40
1
 10
87.563113
 20
-110.059893
 30
0.0
 10
89.831333
 20
-110.059893
 30
0.0
 10
92.099271
 20
-110.893860
 30
0.0
 10
93.890536
 20
-112.208451
 30
0.0
  0
SPLINE
  5
267
100
AcDbEntity
  8
0
 62
7
100
AcDbSpline
 70
8
 71
3
 72
8
 73
4
 74
0
 40
0
 40
0
 40
0
 40
0
 40
1
 40
1
 40
1
 40
1
 10
93.890536
 20
-112.208451
 30
0.0
 10
95.442476
 20
-113.759544
 30
0.0
 10
97.234869
 20
-115.072724
 30
0.0
 10
99.145513
 20
-116.145733
 30
0.0
  0
SPLINE
  5
268
100
AcDbEntity
  8
0
 62
7
100
AcDbSpline
 70
8
 71
3
 72
8
 73
4
 74
0
 40
0
 40
0
 40
0
 40
0
 40
1
 40
1
 40
1
 40
1
 10
99.145513
 20
-116.145733
 30
0.0
 10
100.458129
 20
-116.862860
 30
0.0
 10
102.010069
 20
-117.339533
 30
0.0
 10
103.563420
 20
-117.339533
 30
0.0
  0
SPLINE
  5
269
100
AcDbEntity
  8
0
 62
7
100
AcDbSpline
 70
8
 71
3
 72
8
 73
4
 74
0
 40
0
 40
0
 40
0
 40
0
 40
1
 40
1
 40
1
 40
1
 10
103.563420
 20
-117.339533
 30
0.0
 10
106.190062
 20
-117.339533
 30
0.0
 10
108.577944
 20
-116.266524
 30
0.0
 10
110.368927
 20
-114.476671
 30
0.0
  0
SPLINE
  5
26a
100
AcDbEntity
  8
0
 62
7
100
AcDbSpline
 70
8
 71
3
 72
8
 73
4
 74
0
 40
0
 40
0
 40
0
 40
0
 40
1
 40
1
 40
1
 40
1
 10
110.368927
 20
-114.476671
 30
0.0
 10
114.429540
 20
-119.726004
 30
0.0
 10
120.876342
 20
-122.829320
 30
0.0
 10
127.683260
 20
-122.829320
 30
0.0
  0
SPLINE
  5
26b
100
AcDbEntity
  8
0
 62
7
100
AcDbSpline
 70
8
 71
3
 72
8
 73
4
 74
0
 40
0
 40
0
 40
0
 40
0
 40
1
 40
1
 40
1
 40
1
 10
127.683260
 20
-122.829320
 30
0.0
 10
129.593904
 20
-122.829320
 30
0.0
 10
131.504549
 20
-122.591407
 30
0.0
 10
133.534856
 20
-121.995353
 30
0.0
  0
SPLINE
  5
26c
100
AcDbEntity
  8
0
 62
7
100
AcDbSpline
 70
8
 71
3
 72
8
 73
4
 74
0
 40
0
 40
0
 40
0
 40
0
 40
1
 40
1
 40
1
 40
1
 10
133.534856
 20
-121.995353
 30
0.0
 10
140.938391
 20
-120.680762
 30
0.0
 10
147.145869
 20
-115.667649
 30
0.0
 10
150.011836
 20
-108.509082
 30
0.0
  0
SPLINE
  5
26d
100
AcDbEntity
  8
0
 62
7
100
AcDbSpline
 70
8
 71
3
 72
8
 73
4
 74
0
 40
0
 40
0
 40
0
 40
0
 40
1
 40
1
 40
1
 40
1
 10
150.011836
 20
-108.509082
 30
0.0
 10
150.369411
 20
-107.195620
 30
0.0
 10
150.611276
 20
-105.764189
 30
0.0
 10
150.611276
 20
-104.331347
 30
0.0
  0
SPLINE
  5
26e
100
AcDbEntity
  8
0
 62
7
100
AcDbSpline
 70
8
 71
3
 72
8
 73
4
 74
0
 40
0
 40
0
 40
0
 40
0
 40
1
 40
1
 40
1
 40
1
 10
150.611276
 20
-104.331347
 30
0.0
 10
150.611276
 20
-100.988989
 30
0.0
 10
149.534880
 20
-97.888213
 30
0.0
 10
147.624236
 20
-95.261571
 30
0.0
  0
SPLINE
  5
26f
100
AcDbEntity
  8
0
 62
7
100
AcDbSpline
 70
8
 71
3
 72
8
 73
4
 74
0
 40
0
 40
0
 40
0
 40
0
 40
1
 40
1
 40
1
 40
1
 10
147.624236
 20
-95.261571
 30
0.0
 10
151.563776
 20
-92.637751
 30
0.0
 10
155.147433
 20
-89.534436
 30
0.0
 10
158.134191
 20
-85.833373
 30
0.0
  0
SPLINE
  5
270
100
AcDbEntity
  8
0
 62
7
100
AcDbSpline
 70
8
 71
3
 72
8
 73
4
 74
0
 40
0
 40
0
 40
0
 40
0
 40
1
 40
1
 40
1
 40
1
 10
158.134191
 20
-85.833373
 30
0.0
 10
160.997618
 20
-82.493556
 30
0.0
 10
162.670349
 20
-78.197851
 30
0.0
 10
162.670349
 20
-73.900736
 30
0.0
  0
SPLINE
  5
271
100
AcDbEntity
  8
0
 62
7
100
AcDbSpline
 70
8
 71
3
 72
8
 73
4
 74
0
 40
0
 40
0
 40
0
 40
0
 40
1
 40
1
 40
1
 40
1
 10
162.670349
 20
-73.900736
 30
0.0
 10
162.670349
 20
-73.424062
 30
0.0
 10
162.670349
 20
-73.066769
 30
0.0
 10
162.549558
 20
-72.588684
 30
0.0
  0
SPLINE
  5
272
100
AcDbEntity
  8
0
 62
7
100
AcDbSpline
 70
8
 71
3
 72
8
 73
4
 74
0
 40
0
 40
0
 40
0
 40
0
 40
1
 40
1
 40
1
 40
1
 10
162.549558
 20
-72.588684
 30
0.0
 10
162.191982
 20
-67.217149
 30
0.0
 10
158.729398
 20
-62.444771
 30
0.0
 10
153.595493
 20
-60.296213
 30
0.0
  0
SPLINE
  5
273
100
AcDbEntity
  8
0
 62
7
100
AcDbSpline
 70
8
 71
3
 72
8
 73
4
 74
0
 40
0
 40
0
 40
0
 40
0
 40
1
 40
1
 40
1
 40
1
 10
153.595493
 20
-60.296213
 30
0.0
 10
152.878084
 20
-53.137364
 30
0.0
 10
150.011836
 20
-46.452649
 30
0.0
 10
145.356298
 20
-40.964273
 30
0.0
  0
SPLINE
  5
274
100
AcDbEntity
  8
0
 62
7
100
AcDbSpline
 70
8
 71
3
 72
8
 73
4
 74
0
 40
0
 40
0
 40
0
 40
0
 40
1
 40
1
 40
1
 40
1
 10
145.356298
 20
-40.964273
 30
0.0
 10
140.699067
 20
-35.474769
 30
0.0
 10
133.892149
 20
-32.371453
 30
0.0
 10
126.727938
 20
-32.371453
 30
0.0
  0
SPLINE
  5
275
100
AcDbEntity
  8
0
 62
7
100
AcDbSpline
 70
8
 71
3
 72
8
 73
4
 74
0
 40
0
 40
0
 40
0
 40
0
 40
1
 40
1
 40
1
 40
1
 10
126.727938
 20
-32.371453
 30
0.0
 10
124.936673
 20
-32.371453
 30
0.0
 10
123.026029
 20
-32.610496
 30
0.0
 10
121.116796
 20
-32.968918
 30
0.0
  0
SPLINE
  5
276
100
AcDbEntity
  8
0
 62
7
100
AcDbSpline
 70
8
 71
3
 72
8
 73
4
 74
0
 40
0
 40
0
 40
0
 40
0
 40
1
 40
1
 40
1
 40
1
 10
121.116796
 20
-32.968918
 30
0.0
 10
111.085207
 20
-35.235727
 30
0.0
 10
103.563420
 20
-43.589504
 30
0.0
 10
102.368773
 20
-53.851669
 30
0.0
  0
SPLINE
  5
277
100
AcDbEntity
  8
0
 62
7
100
AcDbSpline
 70
8
 71
3
 72
8
 73
4
 74
0
 40
0
 40
0
 40
0
 40
0
 40
1
 40
1
 40
1
 40
1
 10
102.368773
 20
-53.851669
 30
0.0
 10
102.368773
 20
-54.211502
 30
0.0
 10
102.368773
 20
-54.568796
 30
0.0
 10
102.368773
 20
-54.806427
 30
0.0
  0
SPLINE
  5
278
100
AcDbEntity
  8
0
 62
7
100
AcDbSpline
 70
8
 71
3
 72
8
 73
4
 74
0
 40
0
 40
0
 40
0
 40
0
 40
1
 40
1
 40
1
 40
1
 10
102.368773
 20
-54.806427
 30
0.0
 10
102.368773
 20
-59.819540
 30
0.0
 10
104.997109
 20
-64.593329
 30
0.0
 10
109.174562
 20
-67.217149
 30
0.0
  0
SPLINE
  5
279
100
AcDbEntity
  8
0
 62
7
100
AcDbSpline
 70
8
 71
3
 72
8
 73
4
 74
0
 40
0
 40
0
 40
0
 40
0
 40
1
 40
1
 40
1
 40
1
 10
109.174562
 20
-67.217149
 30
0.0
 10
111.204587
 20
-68.410949
 30
0.0
 10
113.353144
 20
-69.008696
 30
0.0
 10
115.622493
 20
-69.008696
 30
0.0
  0
SPLINE
  5
27a
100
AcDbEntity
  8
0
 62
7
100
AcDbSpline
 70
8
 71
3
 72
8
 73
4
 74
0
 40
0
 40
0
 40
0
 40
0
 40
1
 40
1
 40
1
 40
1
 10
115.622493
 20
-69.008696
 30
0.0
 10
116.100860
 20
-69.008696
 30
0.0
 10
116.579227
 20
-68.889033
 30
0.0
 10
117.056182
 20
-68.889033
 30
0.0
  0
SPLINE
  5
27b
100
AcDbEntity
  8
0
 62
7
100
AcDbSpline
 70
8
 71
3
 72
8
 73
4
 74
0
 40
0
 40
0
 40
0
 40
0
 40
1
 40
1
 40
1
 40
1
 10
117.056182
 20
-68.889033
 30
0.0
 10
115.861818
 20
-70.915671
 30
0.0
 10
115.145538
 20
-73.305811
 30
0.0
 10
115.145538
 20
-75.690871
 30
0.0
  0
SPLINE
  5
27c
100
AcDbEntity
  8
0
 62
7
100
AcDbSpline
 70
8
 71
3
 72
8
 73
4
 74
0
 40
0
 40
0
 40
0
 40
0
 40
1
 40
1
 40
1
 40
1
 10
115.145538
 20
-75.690871
 30
0.0
 10
115.145538
 20
-75.928502
 30
0.0
 10
115.145538
 20
-76.166133
 30
0.0
 10
115.145538
 20
-76.527378
 30
0.0
  0
SPLINE
  5
27d
100
AcDbEntity
  8
0
 62
7
100
AcDbSpline
 70
8
 71
3
 72
8
 73
4
 74
0
 40
0
 40
0
 40
0
 40
0
 40
1
 40
1
 40
1
 40
1
 10
115.145538
 20
-76.527378
 30
0.0
 10
115.504242
 20
-80.702291
 30
0.0
 10
117.652800
 20
-84.521322
 30
0.0
 10
120.997133
 20
-86.908922
 30
0.0
  0
SPLINE
  5
27e
100
AcDbEntity
  8
0
 62
7
100
AcDbSpline
 70
8
 71
3
 72
8
 73
4
 74
0
 40
0
 40
0
 40
0
 40
0
 40
1
 40
1
 40
1
 40
1
 10
120.997133
 20
-86.908922
 30
0.0
 10
123.026029
 20
-88.460016
 30
0.0
 10
125.534702
 20
-89.653816
 30
0.0
 10
128.041964
 20
-90.130489
 30
0.0
  0
SPLINE
  5
27f
100
AcDbEntity
  8
0
 62
7
100
AcDbSpline
 70
8
 71
3
 72
8
 73
4
 74
0
 40
0
 40
0
 40
0
 40
0
 40
1
 40
1
 40
1
 40
1
 10
128.041964
 20
-90.130489
 30
0.0
 10
124.220676
 20
-90.846204
 30
0.0
 10
120.638429
 20
-93.114424
 30
0.0
 10
118.131167
 20
-96.216329
 30
0.0
  0
SPLINE
  5
280
100
AcDbEntity
  8
0
 62
7
100
AcDbSpline
 70
8
 71
3
 72
8
 73
4
 74
0
 40
0
 40
0
 40
0
 40
0
 40
1
 40
1
 40
1
 40
1
 10
118.131167
 20
-96.216329
 30
0.0
 10
115.861818
 20
-93.710478
 30
0.0
 10
113.115231
 20
-91.563331
 30
0.0
 10
110.011633
 20
-89.892858
 30
0.0
  0
SPLINE
  5
281
100
AcDbEntity
  8
0
 62
7
100
AcDbSpline
 70
8
 71
3
 72
8
 73
4
 74
0
 40
0
 40
0
 40
0
 40
0
 40
1
 40
1
 40
1
 40
1
 10
110.011633
 20
-89.892858
 30
0.0
 10
107.026004
 20
-88.340636
 30
0.0
 10
103.802462
 20
-87.505258
 30
0.0
 10
100.458129
 20
-87.505258
 30
0.0
  0
SPLINE
  5
282
100
AcDbEntity
  8
0
 62
7
100
AcDbSpline
 70
8
 71
3
 72
8
 73
4
 74
0
 40
0
 40
0
 40
0
 40
0
 40
1
 40
1
 40
1
 40
1
 10
100.458129
 20
-87.505258
 30
0.0
 10
99.742131
 20
-87.505258
 30
0.0
 10
98.906189
 20
-87.505258
 30
0.0
 10
98.190191
 20
-87.624638
 30
0.0
  0
SPLINE
  5
283
100
AcDbEntity
  8
0
 62
7
100
AcDbSpline
 70
8
 71
3
 72
8
 73
4
 74
0
 40
0
 40
0
 40
0
 40
0
 40
1
 40
1
 40
1
 40
1
 10
98.190191
 20
-87.624638
 30
0.0
 10
95.204562
 20
-88.222384
 30
0.0
 10
92.457976
 20
-89.653816
 30
0.0
 10
90.308289
 20
-91.800962
 30
0.0
  0
SPLINE
  5
284
100
AcDbEntity
  8
0
 62
7
100
AcDbSpline
 70
8
 71
3
 72
8
 73
4
 74
0
 40
0
 40
0
 40
0
 40
0
 40
1
 40
1
 40
1
 40
1
 10
90.308289
 20
-91.800962
 30
0.0
 10
88.279393
 20
-92.041416
 30
0.0
 10
86.249087
 20
-92.637751
 30
0.0
 10
84.458104
 20
-93.710478
 30
0.0
  0
SPLINE
  5
285
100
AcDbEntity
  8
0
 62
7
100
AcDbSpline
 70
8
 71
3
 72
8
 73
4
 74
0
 40
0
 40
0
 40
0
 40
0
 40
1
 40
1
 40
1
 40
1
 10
84.458104
 20
-93.710478
 30
0.0
 10
82.786502
 20
-94.545856
 30
0.0
 10
81.473887
 20
-95.857907
 30
0.0
 10
80.636816
 20
-97.649171
 30
0.0
  0
SPLINE
  5
286
100
AcDbEntity
  8
0
 62
7
100
AcDbSpline
 70
8
 71
3
 72
8
 73
4
 74
0
 40
0
 40
0
 40
0
 40
0
 40
1
 40
1
 40
1
 40
1
 10
80.636816
 20
-97.649171
 30
0.0
 10
80.279240
 20
-98.602800
 30
0.0
 10
79.920536
 20
-99.678349
 30
0.0
 10
79.920536
 20
-100.749947
 30
0.0
  0
SPLINE
  5
287
100
AcDbEntity
  8
0
 62
7
100
AcDbSpline
 70
8
 71
3
 72
8
 73
4
 74
0
 40
0
 40
0
 40
0
 40
0
 40
1
 40
1
 40
1
 40
1
 10
79.920536
 20
-100.749947
 30
0.0
 10
79.920536
 20
-100.988989
 30
0.0
 10
80.040198
 20
-101.229160
 30
0.0
 10
80.040198
 20
-101.467073
 30
0.0
  0
SPLINE
  5
288
100
AcDbEntity
  8
0
 62
7
100
AcDbSpline
 70
8
 71
3
 72
8
 73
4
 74
0
 40
0
 40
0
 40
0
 40
0
 40
1
 40
1
 40
1
 40
1
 10
80.040198
 20
-101.467073
 30
0.0
 10
79.084876
 20
-101.348822
 30
0.0
 10
78.129553
 20
-101.229160
 30
0.0
 10
77.174231
 20
-101.229160
 30
0.0
  0
SPLINE
  5
289
100
AcDbEntity
  8
0
 62
7
100
AcDbSpline
 70
8
 71
3
 72
8
 73
4
 74
0
 40
0
 40
0
 40
0
 40
0
 40
1
 40
1
 40
1
 40
1
 10
77.174231
 20
-101.229160
 30
0.0
 10
77.054569
 20
-101.229160
 30
0.0
 10
76.934907
 20
-101.229160
 30
0.0
 10
76.695864
 20
-101.229160
 30
0.0
  0
SPLINE
  5
28a
100
AcDbEntity
  8
0
 62
7
100
AcDbSpline
 70
8
 71
3
 72
8
 73
4
 74
0
 40
0
 40
0
 40
0
 40
0
 40
1
 40
1
 40
1
 40
1
 10
76.695864
 20
-101.229160
 30
0.0
 10
74.904600
 20
-101.229160
 30
0.0
 10
73.233280
 20
-101.826907
 30
0.0
 10
71.801002
 20
-103.019296
 30
0.0
  0
SPLINE
  5
28b
100
AcDbEntity
  8
0
 62
7
100
AcDbSpline
 70
8
 71
3
 72
8
 73
4
 74
0
 40
0
 40
0
 40
0
 40
0
 40
1
 40
1
 40
1
 40
1
 10
71.801002
 20
-103.019296
 30
0.0
 10
70.727147
 20
-103.975464
 30
0.0
 10
70.129400
 20
-105.287516
 30
0.0
 10
70.129400
 20
-106.838327
 30
0.0
  0
SPLINE
  5
28c
100
AcDbEntity
  8
0
 62
7
100
AcDbSpline
 70
8
 71
3
 72
8
 73
4
 74
0
 40
0
 40
0
 40
0
 40
0
 40
1
 40
1
 40
1
 40
1
 10
70.129400
 20
-106.838327
 30
0.0
 10
70.129400
 20
-106.957989
 30
0.0
 10
70.129400
 20
-107.195620
 30
0.0
 10
70.129400
 20
-107.436073
 30
0.0
  0
SPLINE
  5
28d
100
AcDbEntity
  8
0
 62
7
100
AcDbSpline
 70
8
 71
3
 72
8
 73
4
 74
0
 40
0
 40
0
 40
0
 40
0
 40
1
 40
1
 40
1
 40
1
 10
70.129400
 20
-107.436073
 30
0.0
 10
67.382813
 20
-109.224798
 30
0.0
 10
65.711493
 20
-112.328113
 30
0.0
 10
65.711493
 20
-115.667649
 30
0.0
  0
SPLINE
  5
28e
100
AcDbEntity
  8
0
 62
7
100
AcDbSpline
 70
8
 71
3
 72
8
 73
4
 74
0
 40
0
 40
0
 40
0
 40
0
 40
1
 40
1
 40
1
 40
1
 10
65.711493
 20
-115.667649
 30
0.0
 10
65.711493
 20
-115.787311
 30
0.0
 10
65.711493
 20
-115.905562
 30
0.0
 10
65.829744
 20
-116.024942
 30
0.0
  0
SPLINE
  5
28f
100
AcDbEntity
  8
0
 62
7
100
AcDbSpline
 70
8
 71
3
 72
8
 73
4
 74
0
 40
0
 40
0
 40
0
 40
0
 40
1
 40
1
 40
1
 40
1
 10
65.829744
 20
-116.024942
 30
0.0
 10
61.650880
 20
-118.771247
 30
0.0
 10
59.143618
 20
-123.426784
 30
0.0
 10
59.143618
 20
-128.318824
 30
0.0
  0
LINE
  5
290
100
AcDbEntity
  8
0
 62
7
100
AcDbLine
 10
59.143618
 20
-128.318824
 30
0.0
 11
59.263280
 21
-129.871329
 31
0.0
  0
LINE
  5
291
100
AcDbEntity
  8
0
 62
7
100
AcDbLine
 10
59.263280
 20
-129.871329
 30
0.0
 11
59.263280
 21
-129.871329
 31
0.0
  0
ENDSEC
  0
SECTION
  2
OBJECTS
  0
DICTIONARY
  5
C
330
0
100
AcDbDictionary
  3
ACAD_GROUP
350
D
  3
ACAD_MLINESTYLE
350
17
  0
DICTIONARY
  5
D
330
C
100
AcDbDictionary
  0
DICTIONARY
  5
1A
330
C
100
AcDbDictionary
  0
DICTIONARY
  5
17
330
C
100
AcDbDictionary
  3
STANDARD
350
18
  0
DICTIONARY
  5
19
330
C
100
AcDbDictionary
  0
ENDSEC
  0
EOF
